M48
METRIC,LZ,000.000
;FILE_FORMAT=3:3
;TYPE=PLATED
;Layer: PTH_Through
;EasyEDA v6.5.47, 2024-09-25 19:50:29
;4115ed8de5bc4dae80ebc9d7783316fa,2802210eb98647e48a656566f44cf116,10
;Gerber Generator version 0.2
;Holesize 1 = 0.915 mm
T01C0.915
;Holesize 2 = 1.050 mm
T02C1.050
;Holesize 3 = 2.000 mm
T03C2.000
%
G05
G90
T01
X036322Y019558
X033782Y019558
X031242Y019558
X028702Y019558
X026162Y019558
X023622Y019558
X028829Y015240
X031369Y015240
T02
X018542Y020761
X018542Y023261
X018542Y025761
X018542Y028261
X041402Y028007
X041402Y025507
X041402Y023007
X041402Y020507
T03
X043180Y035560
X016891Y035560
X016891Y013970
X043053Y013970
M30
