G04 Layer: TopSilkscreenLayer*
G04 EasyEDA v6.5.47, 2024-09-25 19:50:29*
G04 4115ed8de5bc4dae80ebc9d7783316fa,2802210eb98647e48a656566f44cf116,10*
G04 Gerber Generator version 0.2*
G04 Scale: 100 percent, Rotated: No, Reflected: No *
G04 Dimensions in millimeters *
G04 leading zeros omitted , absolute positions ,4 integer and 5 decimal *
%FSLAX45Y45*%
%MOMM*%

%ADD10C,0.2032*%
%ADD11C,0.1524*%
%ADD12C,0.2540*%

%LPD*%
D10*
X1621536Y2845815D02*
G01*
X1619250Y2850387D01*
X1614678Y2854960D01*
X1610105Y2857245D01*
X1601215Y2857245D01*
X1596644Y2854960D01*
X1592071Y2850387D01*
X1589786Y2845815D01*
X1587500Y2838957D01*
X1587500Y2827528D01*
X1589786Y2820670D01*
X1592071Y2816352D01*
X1596644Y2811779D01*
X1601215Y2809494D01*
X1610105Y2809494D01*
X1614678Y2811779D01*
X1619250Y2816352D01*
X1621536Y2820670D01*
X1621536Y2827528D01*
X1610105Y2827528D02*
G01*
X1621536Y2827528D01*
X1636521Y2857245D02*
G01*
X1636521Y2809494D01*
X1636521Y2857245D02*
G01*
X1668526Y2809494D01*
X1668526Y2857245D02*
G01*
X1668526Y2809494D01*
X1683512Y2857245D02*
G01*
X1683512Y2809494D01*
X1683512Y2857245D02*
G01*
X1699260Y2857245D01*
X1706118Y2854960D01*
X1710689Y2850387D01*
X1712976Y2845815D01*
X1715262Y2838957D01*
X1715262Y2827528D01*
X1712976Y2820670D01*
X1710689Y2816352D01*
X1706118Y2811779D01*
X1699260Y2809494D01*
X1683512Y2809494D01*
X1592071Y2615945D02*
G01*
X1616963Y2615945D01*
X1603502Y2597657D01*
X1610105Y2597657D01*
X1614678Y2595371D01*
X1616963Y2593086D01*
X1619250Y2586228D01*
X1619250Y2581655D01*
X1616963Y2575052D01*
X1612392Y2570479D01*
X1605787Y2568194D01*
X1598929Y2568194D01*
X1592071Y2570479D01*
X1589786Y2572765D01*
X1587500Y2577337D01*
X1634236Y2615945D02*
G01*
X1652523Y2568194D01*
X1670557Y2615945D02*
G01*
X1652523Y2568194D01*
X1690115Y2615945D02*
G01*
X1715262Y2615945D01*
X1701545Y2597657D01*
X1708404Y2597657D01*
X1712976Y2595371D01*
X1715262Y2593086D01*
X1717547Y2586228D01*
X1717547Y2581655D01*
X1715262Y2575052D01*
X1710689Y2570479D01*
X1703831Y2568194D01*
X1696973Y2568194D01*
X1690115Y2570479D01*
X1687829Y2572765D01*
X1685797Y2577337D01*
X1619250Y2342387D02*
G01*
X1614678Y2346960D01*
X1608073Y2349245D01*
X1598929Y2349245D01*
X1592071Y2346960D01*
X1587500Y2342387D01*
X1587500Y2337815D01*
X1589786Y2333244D01*
X1592071Y2330957D01*
X1596644Y2328671D01*
X1610105Y2324100D01*
X1614678Y2321813D01*
X1616963Y2319528D01*
X1619250Y2314955D01*
X1619250Y2308352D01*
X1614678Y2303779D01*
X1608073Y2301494D01*
X1598929Y2301494D01*
X1592071Y2303779D01*
X1587500Y2308352D01*
X1634236Y2349245D02*
G01*
X1634236Y2301494D01*
X1634236Y2349245D02*
G01*
X1650237Y2349245D01*
X1657095Y2346960D01*
X1661668Y2342387D01*
X1663954Y2337815D01*
X1666239Y2330957D01*
X1666239Y2319528D01*
X1663954Y2312670D01*
X1661668Y2308352D01*
X1657095Y2303779D01*
X1650237Y2301494D01*
X1634236Y2301494D01*
X1699260Y2349245D02*
G01*
X1681226Y2301494D01*
X1699260Y2349245D02*
G01*
X1717547Y2301494D01*
X1687829Y2317242D02*
G01*
X1710689Y2317242D01*
X1619250Y2075687D02*
G01*
X1614678Y2080260D01*
X1608073Y2082545D01*
X1598929Y2082545D01*
X1592071Y2080260D01*
X1587500Y2075687D01*
X1587500Y2071115D01*
X1589786Y2066544D01*
X1592071Y2064257D01*
X1596644Y2061971D01*
X1610105Y2057400D01*
X1614678Y2055113D01*
X1616963Y2052828D01*
X1619250Y2048255D01*
X1619250Y2041652D01*
X1614678Y2037079D01*
X1608073Y2034794D01*
X1598929Y2034794D01*
X1592071Y2037079D01*
X1587500Y2041652D01*
X1668526Y2071115D02*
G01*
X1666239Y2075687D01*
X1661668Y2080260D01*
X1657095Y2082545D01*
X1647952Y2082545D01*
X1643379Y2080260D01*
X1638807Y2075687D01*
X1636521Y2071115D01*
X1634236Y2064257D01*
X1634236Y2052828D01*
X1636521Y2045970D01*
X1638807Y2041652D01*
X1643379Y2037079D01*
X1647952Y2034794D01*
X1657095Y2034794D01*
X1661668Y2037079D01*
X1666239Y2041652D01*
X1668526Y2045970D01*
X1683512Y2082545D02*
G01*
X1683512Y2034794D01*
X1683512Y2034794D02*
G01*
X1710689Y2034794D01*
X4313936Y2058415D02*
G01*
X4311650Y2062987D01*
X4307077Y2067560D01*
X4302506Y2069845D01*
X4293615Y2069845D01*
X4289043Y2067560D01*
X4284472Y2062987D01*
X4282186Y2058415D01*
X4279900Y2051557D01*
X4279900Y2040128D01*
X4282186Y2033270D01*
X4284472Y2028952D01*
X4289043Y2024379D01*
X4293615Y2022094D01*
X4302506Y2022094D01*
X4307077Y2024379D01*
X4311650Y2028952D01*
X4313936Y2033270D01*
X4313936Y2040128D01*
X4302506Y2040128D02*
G01*
X4313936Y2040128D01*
X4328922Y2069845D02*
G01*
X4328922Y2022094D01*
X4328922Y2069845D02*
G01*
X4360925Y2022094D01*
X4360925Y2069845D02*
G01*
X4360925Y2022094D01*
X4375911Y2069845D02*
G01*
X4375911Y2022094D01*
X4375911Y2069845D02*
G01*
X4391659Y2069845D01*
X4398518Y2067560D01*
X4403090Y2062987D01*
X4405375Y2058415D01*
X4407661Y2051557D01*
X4407661Y2040128D01*
X4405375Y2033270D01*
X4403090Y2028952D01*
X4398518Y2024379D01*
X4391659Y2022094D01*
X4375911Y2022094D01*
X4271772Y2323845D02*
G01*
X4296663Y2323845D01*
X4283202Y2305557D01*
X4289806Y2305557D01*
X4294377Y2303271D01*
X4296663Y2300986D01*
X4298950Y2294128D01*
X4298950Y2289555D01*
X4296663Y2282952D01*
X4292091Y2278379D01*
X4285488Y2276094D01*
X4278629Y2276094D01*
X4271772Y2278379D01*
X4269486Y2280665D01*
X4267200Y2285237D01*
X4313936Y2323845D02*
G01*
X4332224Y2276094D01*
X4350258Y2323845D02*
G01*
X4332224Y2276094D01*
X4369815Y2323845D02*
G01*
X4394961Y2323845D01*
X4381245Y2305557D01*
X4388104Y2305557D01*
X4392675Y2303271D01*
X4394961Y2300986D01*
X4397247Y2294128D01*
X4397247Y2289555D01*
X4394961Y2282952D01*
X4390390Y2278379D01*
X4383531Y2276094D01*
X4376674Y2276094D01*
X4369815Y2278379D01*
X4367529Y2280665D01*
X4365497Y2285237D01*
X4311650Y2570987D02*
G01*
X4307077Y2575560D01*
X4300474Y2577845D01*
X4291329Y2577845D01*
X4284472Y2575560D01*
X4279900Y2570987D01*
X4279900Y2566415D01*
X4282186Y2561844D01*
X4284472Y2559557D01*
X4289043Y2557271D01*
X4302506Y2552700D01*
X4307077Y2550413D01*
X4309363Y2548128D01*
X4311650Y2543555D01*
X4311650Y2536952D01*
X4307077Y2532379D01*
X4300474Y2530094D01*
X4291329Y2530094D01*
X4284472Y2532379D01*
X4279900Y2536952D01*
X4326636Y2577845D02*
G01*
X4326636Y2530094D01*
X4326636Y2577845D02*
G01*
X4342638Y2577845D01*
X4349495Y2575560D01*
X4354068Y2570987D01*
X4356354Y2566415D01*
X4358640Y2559557D01*
X4358640Y2548128D01*
X4356354Y2541270D01*
X4354068Y2536952D01*
X4349495Y2532379D01*
X4342638Y2530094D01*
X4326636Y2530094D01*
X4391659Y2577845D02*
G01*
X4373625Y2530094D01*
X4391659Y2577845D02*
G01*
X4409947Y2530094D01*
X4380229Y2545842D02*
G01*
X4403090Y2545842D01*
X4311650Y2824987D02*
G01*
X4307077Y2829560D01*
X4300474Y2831845D01*
X4291329Y2831845D01*
X4284472Y2829560D01*
X4279900Y2824987D01*
X4279900Y2820415D01*
X4282186Y2815844D01*
X4284472Y2813557D01*
X4289043Y2811271D01*
X4302506Y2806700D01*
X4307077Y2804413D01*
X4309363Y2802128D01*
X4311650Y2797555D01*
X4311650Y2790952D01*
X4307077Y2786379D01*
X4300474Y2784094D01*
X4291329Y2784094D01*
X4284472Y2786379D01*
X4279900Y2790952D01*
X4360925Y2820415D02*
G01*
X4358640Y2824987D01*
X4354068Y2829560D01*
X4349495Y2831845D01*
X4340352Y2831845D01*
X4335779Y2829560D01*
X4331208Y2824987D01*
X4328922Y2820415D01*
X4326636Y2813557D01*
X4326636Y2802128D01*
X4328922Y2795270D01*
X4331208Y2790952D01*
X4335779Y2786379D01*
X4340352Y2784094D01*
X4349495Y2784094D01*
X4354068Y2786379D01*
X4358640Y2790952D01*
X4360925Y2795270D01*
X4375911Y2831845D02*
G01*
X4375911Y2784094D01*
X4375911Y2784094D02*
G01*
X4403090Y2784094D01*
D11*
X2245522Y2457089D02*
G01*
X2136556Y2457089D01*
X2245522Y2457089D02*
G01*
X2245522Y2410353D01*
X2240442Y2394859D01*
X2235108Y2389525D01*
X2224694Y2384445D01*
X2209200Y2384445D01*
X2198786Y2389525D01*
X2193706Y2394859D01*
X2188372Y2410353D01*
X2188372Y2457089D01*
X2224694Y2350155D02*
G01*
X2230028Y2339741D01*
X2245522Y2323993D01*
X2136556Y2323993D01*
X3748877Y2419710D02*
G01*
X3857843Y2419710D01*
X3748877Y2419710D02*
G01*
X3748877Y2466446D01*
X3753957Y2481940D01*
X3759291Y2487274D01*
X3769705Y2492354D01*
X3785199Y2492354D01*
X3795613Y2487274D01*
X3800693Y2481940D01*
X3806027Y2466446D01*
X3806027Y2419710D01*
X3774785Y2531978D02*
G01*
X3769705Y2531978D01*
X3759291Y2537058D01*
X3753957Y2542392D01*
X3748877Y2552806D01*
X3748877Y2573380D01*
X3753957Y2583794D01*
X3759291Y2589128D01*
X3769705Y2594208D01*
X3780119Y2594208D01*
X3790533Y2589128D01*
X3806027Y2578714D01*
X3857843Y2526644D01*
X3857843Y2599542D01*
X2997200Y3758437D02*
G01*
X2997200Y3690365D01*
X3001772Y3676650D01*
X3010915Y3667505D01*
X3024377Y3662934D01*
X3033522Y3662934D01*
X3047238Y3667505D01*
X3056381Y3676650D01*
X3060954Y3690365D01*
X3060954Y3758437D01*
X3090925Y3740404D02*
G01*
X3099815Y3744976D01*
X3113531Y3758437D01*
X3113531Y3662934D01*
D10*
X2324861Y2104644D02*
G01*
X2324861Y2154681D01*
X2361184Y2127250D01*
X2361184Y2140965D01*
X2365756Y2150110D01*
X2370327Y2154681D01*
X2383790Y2159254D01*
X2392934Y2159254D01*
X2406650Y2154681D01*
X2415793Y2145537D01*
X2420365Y2131821D01*
X2420365Y2118105D01*
X2415793Y2104644D01*
X2411222Y2100071D01*
X2402077Y2095500D01*
X2324861Y2189226D02*
G01*
X2420365Y2225547D01*
X2324861Y2261870D02*
G01*
X2420365Y2225547D01*
X2324861Y2300986D02*
G01*
X2324861Y2351023D01*
X2361184Y2323592D01*
X2361184Y2337307D01*
X2365756Y2346452D01*
X2370327Y2351023D01*
X2383790Y2355595D01*
X2392934Y2355595D01*
X2406650Y2351023D01*
X2415793Y2341879D01*
X2420365Y2328163D01*
X2420365Y2314702D01*
X2415793Y2300986D01*
X2411222Y2296413D01*
X2402077Y2291842D01*
X2588768Y2163571D02*
G01*
X2579624Y2159254D01*
X2570734Y2150110D01*
X2566161Y2140965D01*
X2566161Y2122678D01*
X2570734Y2113787D01*
X2579624Y2104644D01*
X2588768Y2100071D01*
X2602484Y2095500D01*
X2625090Y2095500D01*
X2638806Y2100071D01*
X2647950Y2104644D01*
X2657093Y2113787D01*
X2661665Y2122678D01*
X2661665Y2140965D01*
X2657093Y2150110D01*
X2647950Y2159254D01*
X2638806Y2163571D01*
X2625090Y2163571D01*
X2625090Y2140965D02*
G01*
X2625090Y2163571D01*
X2566161Y2193797D02*
G01*
X2661665Y2193797D01*
X2566161Y2193797D02*
G01*
X2661665Y2257297D01*
X2566161Y2257297D02*
G01*
X2661665Y2257297D01*
X2566161Y2287270D02*
G01*
X2661665Y2287270D01*
X2566161Y2287270D02*
G01*
X2566161Y2319020D01*
X2570734Y2332736D01*
X2579624Y2341879D01*
X2588768Y2346452D01*
X2602484Y2351023D01*
X2625090Y2351023D01*
X2638806Y2346452D01*
X2647950Y2341879D01*
X2657093Y2332736D01*
X2661665Y2319020D01*
X2661665Y2287270D01*
X3354324Y2171954D02*
G01*
X3345434Y2162810D01*
X3340861Y2149094D01*
X3340861Y2130805D01*
X3345434Y2117344D01*
X3354324Y2108200D01*
X3363468Y2108200D01*
X3372611Y2112771D01*
X3377184Y2117344D01*
X3381756Y2126487D01*
X3390900Y2153665D01*
X3395218Y2162810D01*
X3399790Y2167381D01*
X3408934Y2171954D01*
X3422650Y2171954D01*
X3431793Y2162810D01*
X3436365Y2149094D01*
X3436365Y2130805D01*
X3431793Y2117344D01*
X3422650Y2108200D01*
X3340861Y2201926D02*
G01*
X3436365Y2201926D01*
X3340861Y2201926D02*
G01*
X3340861Y2233676D01*
X3345434Y2247392D01*
X3354324Y2256281D01*
X3363468Y2260854D01*
X3377184Y2265426D01*
X3399790Y2265426D01*
X3413506Y2260854D01*
X3422650Y2256281D01*
X3431793Y2247392D01*
X3436365Y2233676D01*
X3436365Y2201926D01*
X3340861Y2322829D02*
G01*
X3345434Y2313686D01*
X3354324Y2304542D01*
X3363468Y2299970D01*
X3377184Y2295397D01*
X3399790Y2295397D01*
X3413506Y2299970D01*
X3422650Y2304542D01*
X3431793Y2313686D01*
X3436365Y2322829D01*
X3436365Y2340863D01*
X3431793Y2350007D01*
X3422650Y2359152D01*
X3413506Y2363723D01*
X3399790Y2368295D01*
X3377184Y2368295D01*
X3363468Y2363723D01*
X3354324Y2359152D01*
X3345434Y2350007D01*
X3340861Y2340863D01*
X3340861Y2322829D01*
X3087624Y2171954D02*
G01*
X3078734Y2162810D01*
X3074161Y2149094D01*
X3074161Y2130805D01*
X3078734Y2117344D01*
X3087624Y2108200D01*
X3096768Y2108200D01*
X3105911Y2112771D01*
X3110484Y2117344D01*
X3115056Y2126487D01*
X3124200Y2153665D01*
X3128518Y2162810D01*
X3133090Y2167381D01*
X3142234Y2171954D01*
X3155950Y2171954D01*
X3165093Y2162810D01*
X3169665Y2149094D01*
X3169665Y2130805D01*
X3165093Y2117344D01*
X3155950Y2108200D01*
X3074161Y2201926D02*
G01*
X3169665Y2201926D01*
X3074161Y2201926D02*
G01*
X3074161Y2233676D01*
X3078734Y2247392D01*
X3087624Y2256281D01*
X3096768Y2260854D01*
X3110484Y2265426D01*
X3133090Y2265426D01*
X3146806Y2260854D01*
X3155950Y2256281D01*
X3165093Y2247392D01*
X3169665Y2233676D01*
X3169665Y2201926D01*
X3074161Y2331720D02*
G01*
X3169665Y2295397D01*
X3074161Y2331720D02*
G01*
X3169665Y2368295D01*
X3137661Y2309113D02*
G01*
X3137661Y2354579D01*
X3604768Y2188971D02*
G01*
X3595624Y2184654D01*
X3586734Y2175510D01*
X3582161Y2166365D01*
X3582161Y2148078D01*
X3586734Y2139187D01*
X3595624Y2130044D01*
X3604768Y2125471D01*
X3618484Y2120900D01*
X3641090Y2120900D01*
X3654806Y2125471D01*
X3663950Y2130044D01*
X3673093Y2139187D01*
X3677665Y2148078D01*
X3677665Y2166365D01*
X3673093Y2175510D01*
X3663950Y2184654D01*
X3654806Y2188971D01*
X3595624Y2282697D02*
G01*
X3586734Y2273554D01*
X3582161Y2260092D01*
X3582161Y2241804D01*
X3586734Y2228087D01*
X3595624Y2219197D01*
X3604768Y2219197D01*
X3613911Y2223515D01*
X3618484Y2228087D01*
X3623056Y2237231D01*
X3632200Y2264410D01*
X3636518Y2273554D01*
X3641090Y2278126D01*
X3650234Y2282697D01*
X3663950Y2282697D01*
X3673093Y2273554D01*
X3677665Y2260092D01*
X3677665Y2241804D01*
X3673093Y2228087D01*
X3663950Y2219197D01*
X2808224Y2171954D02*
G01*
X2799334Y2162810D01*
X2794761Y2149094D01*
X2794761Y2130805D01*
X2799334Y2117344D01*
X2808224Y2108200D01*
X2817368Y2108200D01*
X2826511Y2112771D01*
X2831084Y2117344D01*
X2835656Y2126487D01*
X2844800Y2153665D01*
X2849118Y2162810D01*
X2853690Y2167381D01*
X2862834Y2171954D01*
X2876550Y2171954D01*
X2885693Y2162810D01*
X2890265Y2149094D01*
X2890265Y2130805D01*
X2885693Y2117344D01*
X2876550Y2108200D01*
X2817368Y2269997D02*
G01*
X2808224Y2265426D01*
X2799334Y2256281D01*
X2794761Y2247392D01*
X2794761Y2229104D01*
X2799334Y2219960D01*
X2808224Y2210815D01*
X2817368Y2206497D01*
X2831084Y2201926D01*
X2853690Y2201926D01*
X2867406Y2206497D01*
X2876550Y2210815D01*
X2885693Y2219960D01*
X2890265Y2229104D01*
X2890265Y2247392D01*
X2885693Y2256281D01*
X2876550Y2265426D01*
X2867406Y2269997D01*
X2794761Y2299970D02*
G01*
X2890265Y2299970D01*
X2890265Y2299970D02*
G01*
X2890265Y2354579D01*
X3126486Y1347215D02*
G01*
X3126486Y1349502D01*
X3128772Y1354073D01*
X3131058Y1356360D01*
X3135629Y1358645D01*
X3144774Y1358645D01*
X3149091Y1356360D01*
X3151377Y1354073D01*
X3153663Y1349502D01*
X3153663Y1344929D01*
X3151377Y1340357D01*
X3146806Y1333500D01*
X3124200Y1310894D01*
X3155950Y1310894D01*
X2870200Y1349502D02*
G01*
X2874772Y1351787D01*
X2881629Y1358645D01*
X2881629Y1310894D01*
D12*
X2091697Y2259871D02*
G01*
X2014199Y2259871D01*
X2014199Y2093567D01*
X2086937Y2093567D01*
X2091697Y2098327D01*
X2091697Y2808638D02*
G01*
X2014199Y2808638D01*
X2014199Y2642334D01*
X2086937Y2642334D01*
X2091697Y2647094D01*
X1511703Y3076100D02*
G01*
X2091697Y3076100D01*
X2091697Y1826099D01*
X1511703Y1826099D01*
X1511703Y3075101D01*
X1512702Y3076100D01*
X3902702Y2616928D02*
G01*
X3980200Y2616928D01*
X3980200Y2783232D01*
X3907462Y2783232D01*
X3902702Y2778472D01*
X3902702Y2068161D02*
G01*
X3980200Y2068161D01*
X3980200Y2234465D01*
X3907462Y2234465D01*
X3902702Y2229705D01*
X4482696Y1800699D02*
G01*
X3902702Y1800699D01*
X3902702Y3050700D01*
X4482696Y3050700D01*
X4482696Y1801698D01*
X4481697Y1800699D01*
X2159000Y1701800D02*
G01*
X3835400Y1701800D01*
X3835400Y3124200D01*
X3276600Y3124200D01*
X3276600Y3632200D01*
X2717800Y3632200D01*
X2717800Y3124200D01*
X2159000Y3124200D01*
X2159000Y1701800D01*
X2755900Y1397000D02*
G01*
X2755900Y1651000D01*
X3263900Y1651000D01*
X3263900Y1397000D01*
X2755900Y1397000D01*
M02*
