G04 Layer: BottomLayer*
G04 EasyEDA v6.5.47, 2024-09-25 19:50:29*
G04 4115ed8de5bc4dae80ebc9d7783316fa,2802210eb98647e48a656566f44cf116,10*
G04 Gerber Generator version 0.2*
G04 Scale: 100 percent, Rotated: No, Reflected: No *
G04 Dimensions in millimeters *
G04 leading zeros omitted , absolute positions ,4 integer and 5 decimal *
%FSLAX45Y45*%
%MOMM*%

%ADD10C,0.5000*%
%ADD11C,1.7000*%
%ADD12C,1.5240*%
%ADD13C,2.0000*%

%LPD*%
G36*
X1445768Y1143508D02*
G01*
X1441856Y1144270D01*
X1438605Y1146505D01*
X1436370Y1149756D01*
X1435608Y1153668D01*
X1435608Y2141067D01*
X1436522Y2145284D01*
X1439113Y2148789D01*
X1442923Y2150821D01*
X1447241Y2151126D01*
X1451305Y2149602D01*
X1454353Y2146554D01*
X1456893Y2142490D01*
X1459585Y2138984D01*
X1462735Y2135530D01*
X1741830Y1856435D01*
X1745284Y1853285D01*
X1748789Y1850593D01*
X1752549Y1848205D01*
X1756511Y1846173D01*
X1760575Y1844446D01*
X1764842Y1843125D01*
X1769160Y1842160D01*
X1773580Y1841601D01*
X1778203Y1841398D01*
X1930196Y1841398D01*
X1934819Y1841601D01*
X1939239Y1842160D01*
X1943557Y1843125D01*
X1947824Y1844446D01*
X1951888Y1846173D01*
X1955850Y1848205D01*
X1959610Y1850593D01*
X1963115Y1853285D01*
X1966569Y1856435D01*
X2093264Y1983130D01*
X2096414Y1986584D01*
X2099106Y1990089D01*
X2101494Y1993849D01*
X2103526Y1997811D01*
X2105253Y2001875D01*
X2106574Y2006142D01*
X2107539Y2010460D01*
X2108098Y2014880D01*
X2108301Y2019503D01*
X2108301Y2184196D01*
X2108098Y2188819D01*
X2107539Y2193239D01*
X2106574Y2197557D01*
X2105253Y2201824D01*
X2103526Y2205888D01*
X2101494Y2209850D01*
X2099106Y2213610D01*
X2096414Y2217115D01*
X2093264Y2220569D01*
X1963877Y2349906D01*
X1962150Y2352192D01*
X1960524Y2357628D01*
X1955596Y2370988D01*
X1949043Y2383586D01*
X1940915Y2395220D01*
X1931365Y2405735D01*
X1920544Y2414981D01*
X1908606Y2422702D01*
X1895805Y2428900D01*
X1882343Y2433370D01*
X1868373Y2436063D01*
X1854200Y2436977D01*
X1840026Y2436063D01*
X1826056Y2433370D01*
X1812594Y2428900D01*
X1799793Y2422702D01*
X1787855Y2414981D01*
X1777034Y2405735D01*
X1767484Y2395220D01*
X1759153Y2383180D01*
X1756308Y2379776D01*
X1752193Y2377948D01*
X1747774Y2378049D01*
X1743760Y2380030D01*
X1740966Y2383536D01*
X1740001Y2387904D01*
X1740001Y2514650D01*
X1740966Y2518918D01*
X1743557Y2522372D01*
X1747418Y2524455D01*
X1751787Y2524658D01*
X1755851Y2523083D01*
X1758848Y2519934D01*
X1763268Y2512669D01*
X1772107Y2501544D01*
X1782318Y2491689D01*
X1793697Y2483154D01*
X1806092Y2476195D01*
X1819249Y2470861D01*
X1833016Y2467254D01*
X1847088Y2465425D01*
X1861312Y2465425D01*
X1875383Y2467254D01*
X1889150Y2470861D01*
X1902307Y2476195D01*
X1914702Y2483154D01*
X1926082Y2491689D01*
X1936292Y2501544D01*
X1945132Y2512669D01*
X1949754Y2520289D01*
X1952040Y2522880D01*
X1955038Y2524607D01*
X1958441Y2525166D01*
X2084933Y2525166D01*
X2088794Y2524404D01*
X2092096Y2522220D01*
X2308301Y2305964D01*
X2310536Y2302713D01*
X2311298Y2298801D01*
X2311298Y2049932D01*
X2310790Y2046833D01*
X2309368Y2043988D01*
X2307183Y2041753D01*
X2296312Y2033778D01*
X2286508Y2024278D01*
X2278024Y2013559D01*
X2271064Y2001824D01*
X2265781Y1989277D01*
X2262174Y1976120D01*
X2260346Y1962607D01*
X2260346Y1948992D01*
X2262174Y1935480D01*
X2265781Y1922322D01*
X2271064Y1909775D01*
X2278024Y1898040D01*
X2286508Y1887321D01*
X2296312Y1877822D01*
X2307183Y1869846D01*
X2309368Y1867611D01*
X2310790Y1864766D01*
X2311298Y1861667D01*
X2311298Y1511503D01*
X2311501Y1506880D01*
X2312060Y1502460D01*
X2313025Y1498142D01*
X2314346Y1493875D01*
X2316073Y1489811D01*
X2318105Y1485849D01*
X2320493Y1482090D01*
X2323185Y1478584D01*
X2326335Y1475130D01*
X2592730Y1208735D01*
X2596184Y1205585D01*
X2599690Y1202893D01*
X2603449Y1200505D01*
X2607411Y1198473D01*
X2611475Y1196746D01*
X2615742Y1195425D01*
X2620060Y1194460D01*
X2624480Y1193901D01*
X2629103Y1193698D01*
X3682796Y1193698D01*
X3687419Y1193901D01*
X3691839Y1194460D01*
X3696157Y1195425D01*
X3700424Y1196746D01*
X3704488Y1198473D01*
X3708450Y1200505D01*
X3712210Y1202893D01*
X3715715Y1205585D01*
X3719169Y1208735D01*
X4391964Y1881530D01*
X4395114Y1884984D01*
X4397806Y1888489D01*
X4400194Y1892249D01*
X4402226Y1896211D01*
X4403953Y1900275D01*
X4405274Y1904542D01*
X4406239Y1908860D01*
X4406798Y1913280D01*
X4407001Y1917903D01*
X4407001Y2084628D01*
X4406798Y2089251D01*
X4406239Y2093671D01*
X4405274Y2097989D01*
X4403953Y2102256D01*
X4402226Y2106320D01*
X4400194Y2110282D01*
X4397806Y2114042D01*
X4395114Y2117547D01*
X4391964Y2121001D01*
X4249978Y2262936D01*
X4247997Y2265730D01*
X4247032Y2268982D01*
X4247235Y2272385D01*
X4249674Y2283002D01*
X4251045Y2297125D01*
X4250588Y2311349D01*
X4248302Y2325370D01*
X4244238Y2338984D01*
X4238498Y2351989D01*
X4231132Y2364130D01*
X4222292Y2375255D01*
X4212082Y2385110D01*
X4200702Y2393645D01*
X4188307Y2400604D01*
X4175150Y2405938D01*
X4161383Y2409545D01*
X4147312Y2411374D01*
X4133087Y2411374D01*
X4119016Y2409545D01*
X4105249Y2405938D01*
X4092092Y2400604D01*
X4079697Y2393645D01*
X4068318Y2385110D01*
X4058107Y2375255D01*
X4049268Y2364130D01*
X4041901Y2351989D01*
X4036161Y2338984D01*
X4032097Y2325370D01*
X4029811Y2311349D01*
X4029354Y2297125D01*
X4030726Y2283002D01*
X4033875Y2269134D01*
X4038803Y2255824D01*
X4045356Y2243226D01*
X4053484Y2231542D01*
X4063034Y2221026D01*
X4073855Y2211832D01*
X4085793Y2204059D01*
X4098594Y2197912D01*
X4112056Y2193442D01*
X4126026Y2190699D01*
X4140200Y2189835D01*
X4154373Y2190699D01*
X4169003Y2193594D01*
X4172305Y2193696D01*
X4175455Y2192731D01*
X4178147Y2190800D01*
X4204614Y2164283D01*
X4206900Y2160828D01*
X4207611Y2156764D01*
X4206646Y2152751D01*
X4204106Y2149449D01*
X4200499Y2147417D01*
X4196384Y2147011D01*
X4192473Y2148281D01*
X4189069Y2150211D01*
X4189069Y2099564D01*
X4239615Y2099564D01*
X4236974Y2106218D01*
X4237278Y2110384D01*
X4239260Y2114092D01*
X4242511Y2116632D01*
X4246575Y2117699D01*
X4250690Y2116988D01*
X4254195Y2114702D01*
X4302201Y2066696D01*
X4304436Y2063445D01*
X4305198Y2059533D01*
X4305198Y1942998D01*
X4304436Y1939086D01*
X4302201Y1935835D01*
X3664864Y1298498D01*
X3661613Y1296263D01*
X3657701Y1295501D01*
X2654198Y1295501D01*
X2650286Y1296263D01*
X2647035Y1298498D01*
X2416098Y1529435D01*
X2413863Y1532686D01*
X2413101Y1536598D01*
X2413101Y1861870D01*
X2413660Y1865223D01*
X2415286Y1868170D01*
X2417826Y1870456D01*
X2422753Y1873605D01*
X2433167Y1882393D01*
X2442311Y1892554D01*
X2450033Y1903780D01*
X2456180Y1915922D01*
X2460650Y1928825D01*
X2463393Y1942185D01*
X2464308Y1955800D01*
X2463393Y1969414D01*
X2460650Y1982774D01*
X2456180Y1995678D01*
X2450033Y2007819D01*
X2442311Y2019046D01*
X2433167Y2029206D01*
X2422753Y2037994D01*
X2417826Y2041143D01*
X2415286Y2043430D01*
X2413660Y2046376D01*
X2413101Y2049729D01*
X2413101Y2323896D01*
X2412898Y2328519D01*
X2412339Y2332939D01*
X2411374Y2337257D01*
X2410053Y2341524D01*
X2408326Y2345588D01*
X2406294Y2349550D01*
X2403906Y2353310D01*
X2401214Y2356815D01*
X2398064Y2360269D01*
X2146350Y2611932D01*
X2142947Y2615082D01*
X2139391Y2617774D01*
X2135632Y2620162D01*
X2131720Y2622245D01*
X2127605Y2623921D01*
X2123389Y2625242D01*
X2119020Y2626207D01*
X2114651Y2626817D01*
X2109978Y2627020D01*
X1958593Y2627020D01*
X1954987Y2627680D01*
X1951888Y2629560D01*
X1940915Y2645257D01*
X1931365Y2655773D01*
X1920544Y2664968D01*
X1908606Y2672740D01*
X1895805Y2678887D01*
X1882343Y2683357D01*
X1868373Y2686100D01*
X1854200Y2686964D01*
X1840026Y2686100D01*
X1826056Y2683357D01*
X1812594Y2678887D01*
X1799793Y2672740D01*
X1787855Y2664968D01*
X1777034Y2655773D01*
X1767484Y2645257D01*
X1759153Y2633218D01*
X1756308Y2629814D01*
X1752193Y2627934D01*
X1747774Y2628036D01*
X1743760Y2630017D01*
X1740966Y2633522D01*
X1740001Y2637891D01*
X1740001Y2764637D01*
X1740966Y2768904D01*
X1743557Y2772359D01*
X1747418Y2774442D01*
X1751787Y2774696D01*
X1755851Y2773070D01*
X1758848Y2769920D01*
X1763268Y2762656D01*
X1772107Y2751531D01*
X1782318Y2741676D01*
X1793697Y2733192D01*
X1805330Y2726588D01*
X1805330Y2777236D01*
X1750161Y2777236D01*
X1746300Y2778048D01*
X1742998Y2780233D01*
X1740763Y2783535D01*
X1740001Y2787396D01*
X1740001Y2864815D01*
X1740763Y2868676D01*
X1742998Y2871978D01*
X1746300Y2874162D01*
X1750161Y2874975D01*
X1805330Y2874975D01*
X1805330Y2925419D01*
X1799793Y2922727D01*
X1787855Y2914954D01*
X1777034Y2905760D01*
X1767484Y2895244D01*
X1759153Y2883204D01*
X1756308Y2879801D01*
X1752193Y2877972D01*
X1747774Y2878023D01*
X1743760Y2880004D01*
X1740966Y2883560D01*
X1740001Y2887878D01*
X1740001Y2895701D01*
X1740763Y2899613D01*
X1742998Y2902864D01*
X1808835Y2968701D01*
X1812086Y2970936D01*
X1815998Y2971698D01*
X3892905Y2971698D01*
X3896817Y2970936D01*
X3900068Y2968701D01*
X3999839Y2868980D01*
X4002074Y2865678D01*
X4002836Y2861767D01*
X4002074Y2857906D01*
X3999839Y2854604D01*
X3996537Y2852369D01*
X3992676Y2851607D01*
X3715308Y2851607D01*
X3710686Y2851404D01*
X3706266Y2850845D01*
X3701948Y2849880D01*
X3697681Y2848559D01*
X3693617Y2846832D01*
X3689654Y2844800D01*
X3685895Y2842412D01*
X3682390Y2839720D01*
X3678936Y2836570D01*
X2900680Y2058263D01*
X2898089Y2056384D01*
X2895041Y2055418D01*
X2891840Y2055469D01*
X2880410Y2057349D01*
X2866796Y2057806D01*
X2853232Y2056485D01*
X2839974Y2053285D01*
X2827223Y2048408D01*
X2815285Y2041855D01*
X2804312Y2033778D01*
X2794508Y2024278D01*
X2786024Y2013559D01*
X2779064Y2001824D01*
X2773781Y1989277D01*
X2770174Y1976120D01*
X2768346Y1962607D01*
X2768346Y1948992D01*
X2770174Y1935480D01*
X2773781Y1922322D01*
X2779064Y1909775D01*
X2786024Y1898040D01*
X2794508Y1887321D01*
X2804312Y1877822D01*
X2815285Y1869744D01*
X2827223Y1863191D01*
X2839974Y1858314D01*
X2853232Y1855114D01*
X2866796Y1853793D01*
X2880410Y1854250D01*
X2893872Y1856486D01*
X2906877Y1860550D01*
X2919272Y1866290D01*
X2930753Y1873605D01*
X2941167Y1882393D01*
X2950311Y1892554D01*
X2958033Y1903780D01*
X2964180Y1915922D01*
X2968650Y1928825D01*
X2971393Y1942185D01*
X2972308Y1955800D01*
X2971393Y1969414D01*
X2969818Y1976983D01*
X2969717Y1980336D01*
X2970682Y1983486D01*
X2972612Y1986229D01*
X3733241Y2746806D01*
X3736492Y2749042D01*
X3740404Y2749804D01*
X4035806Y2749804D01*
X4039412Y2749143D01*
X4042511Y2747213D01*
X4053484Y2731566D01*
X4063034Y2721051D01*
X4073855Y2711856D01*
X4085793Y2704084D01*
X4098594Y2697937D01*
X4112056Y2693416D01*
X4126026Y2690723D01*
X4140200Y2689809D01*
X4154373Y2690723D01*
X4168343Y2693416D01*
X4181805Y2697937D01*
X4194606Y2704084D01*
X4206544Y2711856D01*
X4217365Y2721051D01*
X4226915Y2731566D01*
X4235043Y2743200D01*
X4241596Y2755798D01*
X4246524Y2769158D01*
X4249674Y2783027D01*
X4251045Y2797149D01*
X4250588Y2811322D01*
X4248302Y2825394D01*
X4244238Y2839008D01*
X4238498Y2852013D01*
X4231132Y2864154D01*
X4222292Y2875229D01*
X4212082Y2885135D01*
X4200702Y2893618D01*
X4188307Y2900629D01*
X4175150Y2905963D01*
X4161383Y2909519D01*
X4147312Y2911348D01*
X4133087Y2911348D01*
X4119016Y2909519D01*
X4112158Y2907741D01*
X4108653Y2907436D01*
X4105300Y2908401D01*
X4102404Y2910382D01*
X3954373Y3058464D01*
X3950919Y3061614D01*
X3947414Y3064306D01*
X3943654Y3066694D01*
X3939692Y3068726D01*
X3935628Y3070453D01*
X3931361Y3071774D01*
X3927043Y3072739D01*
X3922623Y3073298D01*
X3918000Y3073501D01*
X1790903Y3073501D01*
X1786280Y3073298D01*
X1781860Y3072739D01*
X1777542Y3071774D01*
X1773275Y3070453D01*
X1769211Y3068726D01*
X1765249Y3066694D01*
X1761489Y3064306D01*
X1757984Y3061614D01*
X1754530Y3058464D01*
X1653235Y2957169D01*
X1650085Y2953715D01*
X1647393Y2950210D01*
X1645005Y2946450D01*
X1642973Y2942488D01*
X1641246Y2938424D01*
X1639925Y2934157D01*
X1638960Y2929839D01*
X1638401Y2925419D01*
X1638198Y2920796D01*
X1638198Y2241499D01*
X1638401Y2236876D01*
X1638960Y2232456D01*
X1639925Y2228138D01*
X1641246Y2223871D01*
X1642973Y2219807D01*
X1645005Y2215845D01*
X1647393Y2212086D01*
X1650085Y2208580D01*
X1653235Y2205126D01*
X1744472Y2113940D01*
X1746402Y2111146D01*
X1747367Y2107895D01*
X1747164Y2104491D01*
X1744725Y2093772D01*
X1743354Y2079650D01*
X1743811Y2065426D01*
X1746097Y2051405D01*
X1750161Y2037791D01*
X1755902Y2024786D01*
X1763268Y2012645D01*
X1772107Y2001570D01*
X1782318Y1991664D01*
X1793697Y1983181D01*
X1806092Y1976170D01*
X1819249Y1970836D01*
X1833016Y1967280D01*
X1847088Y1965452D01*
X1861312Y1965452D01*
X1875383Y1967280D01*
X1889150Y1970836D01*
X1902307Y1976170D01*
X1914702Y1983181D01*
X1926082Y1991664D01*
X1936292Y2001570D01*
X1945132Y2012645D01*
X1952498Y2024786D01*
X1958238Y2037791D01*
X1962302Y2051405D01*
X1964588Y2065426D01*
X1965045Y2079650D01*
X1963674Y2093772D01*
X1960524Y2107641D01*
X1955596Y2121001D01*
X1949043Y2133600D01*
X1940915Y2145233D01*
X1931365Y2155748D01*
X1920544Y2164943D01*
X1908606Y2172716D01*
X1895805Y2178862D01*
X1882343Y2183384D01*
X1868373Y2186076D01*
X1854200Y2186990D01*
X1840026Y2186076D01*
X1825498Y2183231D01*
X1822196Y2183130D01*
X1819046Y2184095D01*
X1816354Y2186025D01*
X1790039Y2212340D01*
X1787804Y2215794D01*
X1787093Y2219858D01*
X1788058Y2223871D01*
X1790547Y2227173D01*
X1794154Y2229205D01*
X1798269Y2229612D01*
X1802231Y2228392D01*
X1806092Y2226208D01*
X1819249Y2220874D01*
X1833016Y2217267D01*
X1847088Y2215438D01*
X1861312Y2215438D01*
X1875383Y2217267D01*
X1889150Y2220874D01*
X1902307Y2226208D01*
X1914702Y2233168D01*
X1920189Y2237282D01*
X1923440Y2238908D01*
X1927047Y2239264D01*
X1930501Y2238400D01*
X1933498Y2236317D01*
X2003501Y2166264D01*
X2005736Y2163013D01*
X2006498Y2159101D01*
X2006498Y2044598D01*
X2005736Y2040686D01*
X2003501Y2037435D01*
X1912264Y1946198D01*
X1909013Y1943963D01*
X1905101Y1943201D01*
X1803298Y1943201D01*
X1799386Y1943963D01*
X1796135Y1946198D01*
X1552498Y2189835D01*
X1550263Y2193086D01*
X1549501Y2196998D01*
X1549501Y2984601D01*
X1550263Y2988513D01*
X1552498Y2991764D01*
X1694535Y3133801D01*
X1697786Y3136036D01*
X1701698Y3136798D01*
X4140301Y3136798D01*
X4144213Y3136036D01*
X4147464Y3133801D01*
X4314901Y2966364D01*
X4317136Y2963113D01*
X4317898Y2959201D01*
X4317898Y2730398D01*
X4317136Y2726486D01*
X4314901Y2723235D01*
X4226661Y2634945D01*
X4223410Y2632760D01*
X4219549Y2631948D01*
X4215688Y2632710D01*
X4212082Y2635148D01*
X4200702Y2643632D01*
X4188307Y2650591D01*
X4175150Y2655925D01*
X4161383Y2659532D01*
X4147312Y2661361D01*
X4133087Y2661361D01*
X4119016Y2659532D01*
X4105249Y2655925D01*
X4092092Y2650591D01*
X4079697Y2643632D01*
X4068318Y2635148D01*
X4058107Y2625242D01*
X4049268Y2614117D01*
X4041901Y2601976D01*
X4039666Y2596946D01*
X4037431Y2593746D01*
X4034180Y2591663D01*
X4030370Y2590901D01*
X3734003Y2590901D01*
X3729380Y2590698D01*
X3724960Y2590139D01*
X3720642Y2589174D01*
X3716375Y2587853D01*
X3712311Y2586126D01*
X3708349Y2584094D01*
X3704590Y2581706D01*
X3701084Y2579014D01*
X3697630Y2575864D01*
X3174085Y2052269D01*
X3170682Y2050034D01*
X3166618Y2049322D01*
X3162655Y2050237D01*
X3160877Y2051050D01*
X3147872Y2055114D01*
X3134410Y2057349D01*
X3120796Y2057806D01*
X3107232Y2056485D01*
X3093974Y2053285D01*
X3081223Y2048408D01*
X3069285Y2041855D01*
X3058312Y2033778D01*
X3048508Y2024278D01*
X3040024Y2013559D01*
X3033064Y2001824D01*
X3027781Y1989277D01*
X3024174Y1976120D01*
X3022346Y1962607D01*
X3022346Y1948992D01*
X3024174Y1935480D01*
X3027781Y1922322D01*
X3033064Y1909775D01*
X3040024Y1898040D01*
X3048508Y1887321D01*
X3058312Y1877822D01*
X3069285Y1869744D01*
X3081223Y1863191D01*
X3093974Y1858314D01*
X3107232Y1855114D01*
X3120796Y1853793D01*
X3134410Y1854250D01*
X3147872Y1856486D01*
X3160877Y1860550D01*
X3173272Y1866290D01*
X3184753Y1873605D01*
X3195167Y1882393D01*
X3204311Y1892554D01*
X3212033Y1903780D01*
X3218180Y1915922D01*
X3222650Y1928825D01*
X3225393Y1942185D01*
X3226308Y1956917D01*
X3227171Y1960473D01*
X3229254Y1963470D01*
X3264712Y1998929D01*
X3268421Y2001266D01*
X3272790Y2001875D01*
X3277006Y2000504D01*
X3280257Y1997557D01*
X3281934Y1993442D01*
X3281679Y1989074D01*
X3278174Y1976120D01*
X3276346Y1962607D01*
X3276346Y1948992D01*
X3278276Y1935124D01*
X3278581Y1931568D01*
X3277666Y1928164D01*
X3275634Y1925218D01*
X2957068Y1606702D01*
X2954223Y1604670D01*
X2950819Y1603756D01*
X2947365Y1604060D01*
X2944164Y1605483D01*
X2934919Y1611833D01*
X2922778Y1617980D01*
X2909874Y1622450D01*
X2896514Y1625193D01*
X2882900Y1626107D01*
X2869285Y1625193D01*
X2855925Y1622450D01*
X2843022Y1617980D01*
X2830880Y1611833D01*
X2819654Y1604111D01*
X2809494Y1594967D01*
X2800705Y1584553D01*
X2793390Y1573072D01*
X2787650Y1560677D01*
X2783586Y1547672D01*
X2781350Y1534210D01*
X2780893Y1520596D01*
X2782214Y1507032D01*
X2785414Y1493774D01*
X2790291Y1481023D01*
X2796844Y1469085D01*
X2804922Y1458112D01*
X2814421Y1448308D01*
X2825140Y1439824D01*
X2836875Y1432864D01*
X2849422Y1427581D01*
X2862580Y1423974D01*
X2876092Y1422146D01*
X2889707Y1422146D01*
X2903220Y1423974D01*
X2916377Y1427581D01*
X2928924Y1432864D01*
X2940659Y1439824D01*
X2951378Y1448308D01*
X2960878Y1458112D01*
X2968955Y1469085D01*
X2975660Y1481378D01*
X2977896Y1484122D01*
X2982671Y1488236D01*
X3059887Y1565452D01*
X3063189Y1567688D01*
X3067050Y1568450D01*
X3092450Y1568450D01*
X3092450Y1593850D01*
X3093212Y1597710D01*
X3095447Y1601012D01*
X3347770Y1853387D01*
X3350564Y1855368D01*
X3353866Y1856282D01*
X3357321Y1856079D01*
X3361232Y1855114D01*
X3374796Y1853793D01*
X3388410Y1854250D01*
X3401872Y1856486D01*
X3414877Y1860550D01*
X3427272Y1866290D01*
X3438753Y1873605D01*
X3449167Y1882393D01*
X3458311Y1892554D01*
X3466033Y1903780D01*
X3472179Y1915922D01*
X3476650Y1928825D01*
X3479393Y1942185D01*
X3480308Y1955800D01*
X3479393Y1969414D01*
X3476650Y1982774D01*
X3472179Y1995678D01*
X3466033Y2007819D01*
X3458311Y2019046D01*
X3449167Y2029206D01*
X3438753Y2037994D01*
X3427272Y2045309D01*
X3414877Y2051050D01*
X3401872Y2055114D01*
X3388410Y2057349D01*
X3374796Y2057806D01*
X3361232Y2056485D01*
X3347974Y2053285D01*
X3345738Y2052472D01*
X3341878Y2051761D01*
X3338017Y2052624D01*
X3334816Y2054860D01*
X3332683Y2058162D01*
X3331921Y2062022D01*
X3332734Y2065832D01*
X3334918Y2069134D01*
X3751935Y2486101D01*
X3755186Y2488336D01*
X3759098Y2489098D01*
X4042968Y2489098D01*
X4046169Y2488590D01*
X4049014Y2487066D01*
X4051300Y2484729D01*
X4053484Y2481580D01*
X4063034Y2471064D01*
X4073855Y2461818D01*
X4085793Y2454097D01*
X4098594Y2447899D01*
X4112056Y2443429D01*
X4126026Y2440736D01*
X4140200Y2439822D01*
X4154373Y2440736D01*
X4168343Y2443429D01*
X4181805Y2447899D01*
X4194606Y2454097D01*
X4206544Y2461818D01*
X4217365Y2471064D01*
X4226915Y2481580D01*
X4235043Y2493213D01*
X4241901Y2506370D01*
X4244238Y2509367D01*
X4250588Y2514904D01*
X4404664Y2668930D01*
X4407814Y2672384D01*
X4410506Y2675890D01*
X4412894Y2679649D01*
X4414926Y2683611D01*
X4416653Y2687675D01*
X4417974Y2691942D01*
X4418939Y2696260D01*
X4419498Y2700680D01*
X4419701Y2705303D01*
X4419701Y2984296D01*
X4419498Y2988919D01*
X4418939Y2993339D01*
X4417974Y2997657D01*
X4416653Y3001924D01*
X4414926Y3005988D01*
X4412894Y3009950D01*
X4410506Y3013710D01*
X4407814Y3017215D01*
X4404664Y3020669D01*
X4201769Y3223564D01*
X4198315Y3226714D01*
X4194810Y3229406D01*
X4191050Y3231794D01*
X4187088Y3233826D01*
X4183024Y3235553D01*
X4178757Y3236874D01*
X4174439Y3237839D01*
X4170019Y3238398D01*
X4165396Y3238601D01*
X1676603Y3238601D01*
X1671980Y3238398D01*
X1667560Y3237839D01*
X1663242Y3236874D01*
X1658975Y3235553D01*
X1654911Y3233826D01*
X1650949Y3231794D01*
X1647189Y3229406D01*
X1643684Y3226714D01*
X1640230Y3223564D01*
X1462735Y3046069D01*
X1459585Y3042615D01*
X1456893Y3039110D01*
X1454353Y3035046D01*
X1451305Y3031998D01*
X1447241Y3030474D01*
X1442923Y3030778D01*
X1439113Y3032810D01*
X1436522Y3036316D01*
X1435608Y3040532D01*
X1435608Y3774084D01*
X1436370Y3777945D01*
X1438554Y3781247D01*
X1441856Y3783431D01*
X1445717Y3784244D01*
X4561281Y3796639D01*
X4565192Y3795877D01*
X4568494Y3793693D01*
X4570730Y3790391D01*
X4571492Y3786479D01*
X4571492Y1153668D01*
X4570730Y1149756D01*
X4568494Y1146505D01*
X4565243Y1144270D01*
X4561332Y1143508D01*
G37*

%LPC*%
G36*
X4305300Y1271117D02*
G01*
X4320489Y1272032D01*
X4335424Y1274775D01*
X4349953Y1279296D01*
X4363821Y1285544D01*
X4376826Y1293418D01*
X4388764Y1302766D01*
X4399534Y1313535D01*
X4408881Y1325473D01*
X4416755Y1338478D01*
X4423003Y1352346D01*
X4427524Y1366875D01*
X4430268Y1381810D01*
X4431182Y1397000D01*
X4430268Y1412189D01*
X4427524Y1427124D01*
X4423003Y1441653D01*
X4416755Y1455521D01*
X4408881Y1468526D01*
X4399534Y1480464D01*
X4388764Y1491234D01*
X4376826Y1500581D01*
X4363821Y1508455D01*
X4349953Y1514703D01*
X4335424Y1519224D01*
X4320489Y1521968D01*
X4305300Y1522882D01*
X4290110Y1521968D01*
X4275175Y1519224D01*
X4260646Y1514703D01*
X4246778Y1508455D01*
X4233773Y1500581D01*
X4221835Y1491234D01*
X4211066Y1480464D01*
X4201718Y1468526D01*
X4193844Y1455521D01*
X4187596Y1441653D01*
X4183075Y1427124D01*
X4180332Y1412189D01*
X4179417Y1397000D01*
X4180332Y1381810D01*
X4183075Y1366875D01*
X4187596Y1352346D01*
X4193844Y1338478D01*
X4201718Y1325473D01*
X4211066Y1313535D01*
X4221835Y1302766D01*
X4233773Y1293418D01*
X4246778Y1285544D01*
X4260646Y1279296D01*
X4275175Y1274775D01*
X4290110Y1272032D01*
G37*
G36*
X1689100Y1271117D02*
G01*
X1704289Y1272032D01*
X1719224Y1274775D01*
X1733753Y1279296D01*
X1747621Y1285544D01*
X1760626Y1293418D01*
X1772564Y1302766D01*
X1783334Y1313535D01*
X1792681Y1325473D01*
X1800555Y1338478D01*
X1806803Y1352346D01*
X1811324Y1366875D01*
X1814068Y1381810D01*
X1814982Y1397000D01*
X1814068Y1412189D01*
X1811324Y1427124D01*
X1806803Y1441653D01*
X1800555Y1455521D01*
X1792681Y1468526D01*
X1783334Y1480464D01*
X1772564Y1491234D01*
X1760626Y1500581D01*
X1747621Y1508455D01*
X1733753Y1514703D01*
X1719224Y1519224D01*
X1704289Y1521968D01*
X1689100Y1522882D01*
X1673910Y1521968D01*
X1658975Y1519224D01*
X1644446Y1514703D01*
X1630578Y1508455D01*
X1617573Y1500581D01*
X1605635Y1491234D01*
X1594866Y1480464D01*
X1585518Y1468526D01*
X1577644Y1455521D01*
X1571396Y1441653D01*
X1566875Y1427124D01*
X1564132Y1412189D01*
X1563217Y1397000D01*
X1564132Y1381810D01*
X1566875Y1366875D01*
X1571396Y1352346D01*
X1577644Y1338478D01*
X1585518Y1325473D01*
X1594866Y1313535D01*
X1605635Y1302766D01*
X1617573Y1293418D01*
X1630578Y1285544D01*
X1644446Y1279296D01*
X1658975Y1274775D01*
X1673910Y1272032D01*
G37*
G36*
X3181350Y1432204D02*
G01*
X3182924Y1432864D01*
X3194659Y1439824D01*
X3205378Y1448308D01*
X3214878Y1458112D01*
X3222955Y1469085D01*
X3228695Y1479550D01*
X3181350Y1479550D01*
G37*
G36*
X3092450Y1432204D02*
G01*
X3092450Y1479550D01*
X3045104Y1479550D01*
X3050844Y1469085D01*
X3058922Y1458112D01*
X3068421Y1448308D01*
X3079140Y1439824D01*
X3090875Y1432864D01*
G37*
G36*
X3181350Y1568450D02*
G01*
X3228543Y1568450D01*
X3226409Y1573072D01*
X3219094Y1584553D01*
X3210306Y1594967D01*
X3200146Y1604111D01*
X3188919Y1611833D01*
X3181350Y1615643D01*
G37*
G36*
X3628796Y1853793D02*
G01*
X3642410Y1854250D01*
X3655872Y1856486D01*
X3668877Y1860550D01*
X3681272Y1866290D01*
X3692753Y1873605D01*
X3703167Y1882393D01*
X3712311Y1892554D01*
X3720033Y1903780D01*
X3726179Y1915922D01*
X3730650Y1928825D01*
X3733393Y1942185D01*
X3734308Y1955800D01*
X3733393Y1969414D01*
X3730650Y1982774D01*
X3726179Y1995678D01*
X3720033Y2007819D01*
X3712311Y2019046D01*
X3703167Y2029206D01*
X3692753Y2037994D01*
X3681272Y2045309D01*
X3668877Y2051050D01*
X3655872Y2055114D01*
X3642410Y2057349D01*
X3628796Y2057806D01*
X3615232Y2056485D01*
X3601974Y2053285D01*
X3589223Y2048408D01*
X3577285Y2041855D01*
X3566312Y2033778D01*
X3556508Y2024278D01*
X3548024Y2013559D01*
X3541064Y2001824D01*
X3535781Y1989277D01*
X3532174Y1976120D01*
X3530346Y1962607D01*
X3530346Y1948992D01*
X3532174Y1935480D01*
X3535781Y1922322D01*
X3541064Y1909775D01*
X3548024Y1898040D01*
X3556508Y1887321D01*
X3566312Y1877822D01*
X3577285Y1869744D01*
X3589223Y1863191D01*
X3601974Y1858314D01*
X3615232Y1855114D01*
G37*
G36*
X2571750Y1864004D02*
G01*
X2571750Y1911350D01*
X2524404Y1911350D01*
X2525064Y1909775D01*
X2532024Y1898040D01*
X2540508Y1887321D01*
X2550312Y1877822D01*
X2561285Y1869744D01*
G37*
G36*
X2660650Y1864156D02*
G01*
X2665272Y1866290D01*
X2676753Y1873605D01*
X2687167Y1882393D01*
X2696311Y1892554D01*
X2704033Y1903780D01*
X2707843Y1911350D01*
X2660650Y1911350D01*
G37*
G36*
X4091330Y1951380D02*
G01*
X4091330Y2001824D01*
X4040886Y2001824D01*
X4045356Y1993239D01*
X4053484Y1981555D01*
X4063034Y1971039D01*
X4073855Y1961845D01*
X4085793Y1954072D01*
G37*
G36*
X4189069Y1951380D02*
G01*
X4194606Y1954072D01*
X4206544Y1961845D01*
X4217365Y1971039D01*
X4226915Y1981555D01*
X4235043Y1993239D01*
X4239514Y2001824D01*
X4189069Y2001824D01*
G37*
G36*
X2660650Y2000250D02*
G01*
X2707843Y2000250D01*
X2704033Y2007819D01*
X2696311Y2019046D01*
X2687167Y2029206D01*
X2676753Y2037994D01*
X2665272Y2045309D01*
X2660650Y2047443D01*
G37*
G36*
X2524404Y2000250D02*
G01*
X2571750Y2000250D01*
X2571750Y2047595D01*
X2561285Y2041855D01*
X2550312Y2033778D01*
X2540508Y2024278D01*
X2532024Y2013559D01*
X2525064Y2001824D01*
G37*
G36*
X4040784Y2099564D02*
G01*
X4091330Y2099564D01*
X4091330Y2150211D01*
X4079697Y2143607D01*
X4068318Y2135124D01*
X4058107Y2125268D01*
X4049268Y2114143D01*
X4041901Y2102002D01*
G37*
G36*
X1903069Y2726588D02*
G01*
X1914702Y2733192D01*
X1926082Y2741676D01*
X1936292Y2751531D01*
X1945132Y2762656D01*
X1952498Y2774797D01*
X1953615Y2777236D01*
X1903069Y2777236D01*
G37*
G36*
X1903069Y2874975D02*
G01*
X1953514Y2874975D01*
X1949043Y2883560D01*
X1940915Y2895244D01*
X1931365Y2905760D01*
X1920544Y2914954D01*
X1908606Y2922727D01*
X1903069Y2925419D01*
G37*
G36*
X1689100Y3430117D02*
G01*
X1704289Y3431032D01*
X1719224Y3433775D01*
X1733753Y3438296D01*
X1747621Y3444544D01*
X1760626Y3452418D01*
X1772564Y3461765D01*
X1783334Y3472535D01*
X1792681Y3484473D01*
X1800555Y3497478D01*
X1806803Y3511346D01*
X1811324Y3525875D01*
X1814068Y3540810D01*
X1814982Y3556000D01*
X1814068Y3571189D01*
X1811324Y3586124D01*
X1806803Y3600653D01*
X1800555Y3614521D01*
X1792681Y3627526D01*
X1783334Y3639464D01*
X1772564Y3650234D01*
X1760626Y3659581D01*
X1747621Y3667455D01*
X1733753Y3673703D01*
X1719224Y3678224D01*
X1704289Y3680968D01*
X1689100Y3681882D01*
X1673910Y3680968D01*
X1658975Y3678224D01*
X1644446Y3673703D01*
X1630578Y3667455D01*
X1617573Y3659581D01*
X1605635Y3650234D01*
X1594866Y3639464D01*
X1585518Y3627526D01*
X1577644Y3614521D01*
X1571396Y3600653D01*
X1566875Y3586124D01*
X1564132Y3571189D01*
X1563217Y3556000D01*
X1564132Y3540810D01*
X1566875Y3525875D01*
X1571396Y3511346D01*
X1577644Y3497478D01*
X1585518Y3484473D01*
X1594866Y3472535D01*
X1605635Y3461765D01*
X1617573Y3452418D01*
X1630578Y3444544D01*
X1644446Y3438296D01*
X1658975Y3433775D01*
X1673910Y3431032D01*
G37*
G36*
X4318000Y3430117D02*
G01*
X4333189Y3431032D01*
X4348124Y3433775D01*
X4362653Y3438296D01*
X4376521Y3444544D01*
X4389526Y3452418D01*
X4401464Y3461765D01*
X4412234Y3472535D01*
X4421581Y3484473D01*
X4429455Y3497478D01*
X4435703Y3511346D01*
X4440224Y3525875D01*
X4442968Y3540810D01*
X4443882Y3556000D01*
X4442968Y3571189D01*
X4440224Y3586124D01*
X4435703Y3600653D01*
X4429455Y3614521D01*
X4421581Y3627526D01*
X4412234Y3639464D01*
X4401464Y3650234D01*
X4389526Y3659581D01*
X4376521Y3667455D01*
X4362653Y3673703D01*
X4348124Y3678224D01*
X4333189Y3680968D01*
X4318000Y3681882D01*
X4302810Y3680968D01*
X4287875Y3678224D01*
X4273346Y3673703D01*
X4259478Y3667455D01*
X4246473Y3659581D01*
X4234535Y3650234D01*
X4223766Y3639464D01*
X4214418Y3627526D01*
X4206544Y3614521D01*
X4200296Y3600653D01*
X4195775Y3586124D01*
X4193032Y3571189D01*
X4192117Y3556000D01*
X4193032Y3540810D01*
X4195775Y3525875D01*
X4200296Y3511346D01*
X4206544Y3497478D01*
X4214418Y3484473D01*
X4223766Y3472535D01*
X4234535Y3461765D01*
X4246473Y3452418D01*
X4259478Y3444544D01*
X4273346Y3438296D01*
X4287875Y3433775D01*
X4302810Y3431032D01*
G37*

%LPD*%
D10*
X1854200Y2326131D02*
G01*
X1915668Y2326131D01*
X2057400Y2184400D01*
X2057400Y2019300D01*
X1930400Y1892300D01*
X1778000Y1892300D01*
X1498600Y2171700D01*
X1498600Y3009900D01*
X1676400Y3187700D01*
X4165600Y3187700D01*
X4368800Y2984500D01*
X4368800Y2705100D01*
X4214368Y2550668D01*
X4140200Y2550668D01*
X1854200Y2076195D02*
G01*
X1689100Y2241295D01*
X1689100Y2921000D01*
X1790700Y3022600D01*
X2362200Y1955800D02*
G01*
X2362200Y1511300D01*
X2628900Y1244600D01*
X3683000Y1244600D01*
X4356100Y1917700D01*
X4356100Y2084831D01*
X4140200Y2300731D01*
X1790700Y3022600D02*
G01*
X3918204Y3022600D01*
X4140200Y2800604D01*
X1854200Y2576093D02*
G01*
X2110206Y2576093D01*
X2122909Y2563390D01*
X2122909Y2563390D02*
G01*
X2362200Y2324100D01*
X2362200Y1955800D01*
X2616200Y1955800D02*
G01*
X2616200Y1587500D01*
X2806700Y1397000D01*
X3009900Y1397000D01*
X3136900Y1524000D01*
X3136900Y1524000D02*
G01*
X3467100Y1524000D01*
X3721100Y1778000D01*
X3867490Y1778000D01*
X4140189Y2050699D01*
X3124200Y1955800D02*
G01*
X3149600Y1955800D01*
X3733800Y2540000D01*
X4129506Y2540000D01*
X4140200Y2550693D01*
X1854200Y2826105D02*
G01*
X2215799Y2826105D01*
X2228601Y2813304D01*
X2228601Y2813304D02*
G01*
X2616200Y2425705D01*
X2616200Y1955800D01*
X2882900Y1524000D02*
G01*
X2946400Y1524000D01*
X3378200Y1955800D01*
X2870200Y1955800D02*
G01*
X3715105Y2800705D01*
X4140200Y2800705D01*
D11*
G01*
X1854200Y2076094D03*
G01*
X1854200Y2326106D03*
G01*
X1854200Y2576093D03*
G01*
X1854200Y2826105D03*
G01*
X4140200Y2800705D03*
G01*
X4140200Y2550693D03*
G01*
X4140200Y2300706D03*
G01*
X4140200Y2050694D03*
D12*
G01*
X3632200Y1955800D03*
G01*
X3378200Y1955800D03*
G01*
X3124200Y1955800D03*
G01*
X2870200Y1955800D03*
G01*
X2616200Y1955800D03*
G01*
X2362200Y1955800D03*
G01*
X2882900Y1524000D03*
G01*
X3136900Y1524000D03*
D13*
G01*
X4318000Y3556000D03*
G01*
X1689100Y3556000D03*
G01*
X1689100Y1397000D03*
G01*
X4305300Y1397000D03*
M02*
