G04 Layer: BottomLayer*
G04 EasyEDA v6.5.47, 2024-09-30 16:46:26*
G04 e7e5d466ba494a0aaca811e2ade4a1f3,2802210eb98647e48a656566f44cf116,10*
G04 Gerber Generator version 0.2*
G04 Scale: 100 percent, Rotated: No, Reflected: No *
G04 Dimensions in millimeters *
G04 leading zeros omitted , absolute positions ,4 integer and 5 decimal *
%FSLAX45Y45*%
%MOMM*%

%ADD10C,0.5000*%
%ADD11C,1.7000*%
%ADD12C,2.0000*%
%ADD13R,2.0000X2.0000*%

%LPD*%
G36*
X2195068Y1295908D02*
G01*
X2191156Y1296670D01*
X2187905Y1298905D01*
X2185670Y1302156D01*
X2184908Y1306068D01*
X2184908Y5501132D01*
X2185670Y5505043D01*
X2187905Y5508294D01*
X2191156Y5510530D01*
X2195068Y5511292D01*
X8053831Y5511292D01*
X8057743Y5510530D01*
X8060994Y5508294D01*
X8063230Y5505043D01*
X8063992Y5501132D01*
X8063992Y1306068D01*
X8063230Y1302156D01*
X8060994Y1298905D01*
X8057743Y1296670D01*
X8053831Y1295908D01*
G37*

%LPC*%
G36*
X6991705Y1443075D02*
G01*
X7009790Y1444447D01*
X7027570Y1447698D01*
X7044994Y1452778D01*
X7061758Y1459585D01*
X7077709Y1468120D01*
X7092746Y1478229D01*
X7106666Y1489811D01*
X7119315Y1502765D01*
X7130542Y1516989D01*
X7140244Y1532280D01*
X7148372Y1548434D01*
X7154722Y1565402D01*
X7159345Y1582928D01*
X7162139Y1600809D01*
X7163053Y1618894D01*
X7162139Y1636979D01*
X7159345Y1654860D01*
X7154722Y1672386D01*
X7148372Y1689354D01*
X7140244Y1705508D01*
X7130542Y1720799D01*
X7119315Y1735023D01*
X7106666Y1747977D01*
X7092746Y1759559D01*
X7077709Y1769668D01*
X7061758Y1778203D01*
X7044994Y1785010D01*
X7027570Y1790090D01*
X7009790Y1793341D01*
X6991705Y1794713D01*
X6973620Y1794256D01*
X6955637Y1791919D01*
X6938009Y1787804D01*
X6920941Y1781810D01*
X6904532Y1774139D01*
X6888988Y1764842D01*
X6874509Y1753971D01*
X6861200Y1741678D01*
X6849262Y1728063D01*
X6838746Y1713280D01*
X6829856Y1697532D01*
X6822592Y1680921D01*
X6817106Y1663700D01*
X6813397Y1645970D01*
X6811518Y1627936D01*
X6811518Y1609852D01*
X6813397Y1591818D01*
X6817106Y1574088D01*
X6822592Y1556867D01*
X6829856Y1540256D01*
X6838746Y1524508D01*
X6849262Y1509725D01*
X6861200Y1496110D01*
X6874509Y1483817D01*
X6888988Y1472946D01*
X6904532Y1463649D01*
X6920941Y1455978D01*
X6938009Y1449984D01*
X6955637Y1445869D01*
X6973620Y1443532D01*
G37*
G36*
X3251708Y1443075D02*
G01*
X3269792Y1444447D01*
X3287572Y1447698D01*
X3304997Y1452778D01*
X3321761Y1459585D01*
X3337712Y1468120D01*
X3352749Y1478229D01*
X3366668Y1489811D01*
X3379317Y1502765D01*
X3390544Y1516989D01*
X3400247Y1532280D01*
X3408375Y1548434D01*
X3414725Y1565402D01*
X3419348Y1582928D01*
X3422142Y1600809D01*
X3423056Y1618894D01*
X3422142Y1636979D01*
X3419348Y1654860D01*
X3414725Y1672386D01*
X3408375Y1689354D01*
X3400247Y1705508D01*
X3390544Y1720799D01*
X3379317Y1735023D01*
X3366668Y1747977D01*
X3352749Y1759559D01*
X3337712Y1769668D01*
X3321761Y1778203D01*
X3304997Y1785010D01*
X3287572Y1790090D01*
X3269792Y1793341D01*
X3251708Y1794713D01*
X3233623Y1794256D01*
X3215640Y1791919D01*
X3198012Y1787804D01*
X3180943Y1781810D01*
X3164535Y1774139D01*
X3148990Y1764842D01*
X3134512Y1753971D01*
X3121202Y1741678D01*
X3109264Y1728063D01*
X3098749Y1713280D01*
X3089859Y1697532D01*
X3082594Y1680921D01*
X3077108Y1663700D01*
X3073400Y1645970D01*
X3071520Y1627936D01*
X3071520Y1609852D01*
X3073400Y1591818D01*
X3077108Y1574088D01*
X3082594Y1556867D01*
X3089859Y1540256D01*
X3098749Y1524508D01*
X3109264Y1509725D01*
X3121202Y1496110D01*
X3134512Y1483817D01*
X3148990Y1472946D01*
X3164535Y1463649D01*
X3180943Y1455978D01*
X3198012Y1449984D01*
X3215640Y1445869D01*
X3233623Y1443532D01*
G37*
G36*
X2438603Y2450998D02*
G01*
X5981496Y2450998D01*
X5986119Y2451201D01*
X5990539Y2451760D01*
X5994857Y2452725D01*
X5999124Y2454046D01*
X6003188Y2455773D01*
X6007150Y2457805D01*
X6010910Y2460193D01*
X6014415Y2462885D01*
X6017869Y2466035D01*
X6586067Y3034233D01*
X6589318Y3036468D01*
X6593230Y3037230D01*
X7528255Y3037230D01*
X7531862Y3036570D01*
X7535011Y3034639D01*
X7545984Y3018942D01*
X7555534Y3008426D01*
X7566355Y2999232D01*
X7578293Y2991459D01*
X7591094Y2985312D01*
X7604556Y2980842D01*
X7618526Y2978099D01*
X7632700Y2977235D01*
X7646873Y2978099D01*
X7660843Y2980842D01*
X7674305Y2985312D01*
X7687106Y2991459D01*
X7699044Y2999232D01*
X7709865Y3008426D01*
X7719415Y3018942D01*
X7727543Y3030626D01*
X7734096Y3043224D01*
X7739024Y3056534D01*
X7742174Y3070402D01*
X7743545Y3084525D01*
X7743088Y3098749D01*
X7740802Y3112770D01*
X7736789Y3126384D01*
X7730998Y3139389D01*
X7723631Y3151530D01*
X7714792Y3162655D01*
X7704581Y3172510D01*
X7693202Y3181045D01*
X7680807Y3188004D01*
X7667650Y3193338D01*
X7653883Y3196945D01*
X7639812Y3198774D01*
X7625588Y3198774D01*
X7611516Y3196945D01*
X7597749Y3193338D01*
X7584592Y3188004D01*
X7572197Y3181045D01*
X7560818Y3172510D01*
X7550607Y3162655D01*
X7541768Y3151530D01*
X7537145Y3143910D01*
X7534859Y3141319D01*
X7531862Y3139643D01*
X7528458Y3139033D01*
X6568135Y3139033D01*
X6563512Y3138830D01*
X6559092Y3138271D01*
X6554774Y3137306D01*
X6550507Y3135985D01*
X6546443Y3134258D01*
X6542481Y3132226D01*
X6538722Y3129838D01*
X6535216Y3127146D01*
X6531762Y3123996D01*
X5963564Y2555798D01*
X5960313Y2553563D01*
X5956401Y2552801D01*
X2463698Y2552801D01*
X2459786Y2553563D01*
X2456535Y2555798D01*
X2339898Y2672435D01*
X2337663Y2675686D01*
X2336901Y2679598D01*
X2336901Y3007969D01*
X2337663Y3011881D01*
X2339898Y3015132D01*
X2489860Y3165144D01*
X2493264Y3167380D01*
X2497277Y3168091D01*
X2501290Y3167176D01*
X2504592Y3164738D01*
X2506675Y3161233D01*
X2507183Y3157169D01*
X2506065Y3153257D01*
X2502103Y3145688D01*
X2497175Y3132328D01*
X2494026Y3118510D01*
X2492654Y3104337D01*
X2493111Y3090164D01*
X2495397Y3076143D01*
X2496312Y3073095D01*
X2496667Y3069488D01*
X2495804Y3065983D01*
X2493721Y3063036D01*
X2402535Y2971850D01*
X2399385Y2968396D01*
X2396693Y2964891D01*
X2394305Y2961132D01*
X2392273Y2957220D01*
X2390546Y2953105D01*
X2389225Y2948889D01*
X2388260Y2944520D01*
X2387701Y2940151D01*
X2387498Y2935478D01*
X2387498Y2730703D01*
X2387701Y2726080D01*
X2388260Y2721660D01*
X2389225Y2717342D01*
X2390546Y2713075D01*
X2392273Y2709011D01*
X2394305Y2705049D01*
X2396693Y2701290D01*
X2399385Y2697784D01*
X2402535Y2694330D01*
X2465730Y2631135D01*
X2469184Y2627985D01*
X2472690Y2625293D01*
X2476449Y2622905D01*
X2480411Y2620873D01*
X2484475Y2619146D01*
X2488742Y2617825D01*
X2493060Y2616860D01*
X2497480Y2616301D01*
X2502103Y2616098D01*
X4736896Y2616098D01*
X4741519Y2616301D01*
X4745939Y2616860D01*
X4750257Y2617825D01*
X4754524Y2619146D01*
X4758588Y2620873D01*
X4762550Y2622905D01*
X4766310Y2625293D01*
X4769815Y2627985D01*
X4773269Y2631135D01*
X5533999Y3391915D01*
X5537149Y3395319D01*
X5539841Y3398875D01*
X5542229Y3402634D01*
X5544312Y3406546D01*
X5545988Y3410661D01*
X5547309Y3414877D01*
X5548274Y3419246D01*
X5548884Y3423615D01*
X5549087Y3428288D01*
X5549087Y4872024D01*
X5549798Y4875834D01*
X5551881Y4879086D01*
X5555081Y4881321D01*
X5556656Y4882032D01*
X5569661Y4889906D01*
X5581650Y4899253D01*
X5592419Y4910023D01*
X5601766Y4922012D01*
X5609640Y4935016D01*
X5615889Y4948834D01*
X5620410Y4963363D01*
X5623153Y4978349D01*
X5624068Y4993487D01*
X5623153Y5008676D01*
X5620410Y5023612D01*
X5617464Y5033060D01*
X5617006Y5036718D01*
X5617870Y5040274D01*
X5619953Y5043271D01*
X5640933Y5064201D01*
X5644184Y5066436D01*
X5648096Y5067198D01*
X6286601Y5067198D01*
X6290513Y5066436D01*
X6293764Y5064201D01*
X6626301Y4731664D01*
X6628536Y4728413D01*
X6629298Y4724501D01*
X6629298Y3772103D01*
X6629501Y3767480D01*
X6630060Y3763060D01*
X6631025Y3758742D01*
X6632346Y3754475D01*
X6634073Y3750411D01*
X6636105Y3746449D01*
X6638493Y3742690D01*
X6641185Y3739184D01*
X6644335Y3735730D01*
X7077862Y3302203D01*
X7081316Y3299053D01*
X7084822Y3296361D01*
X7088581Y3293973D01*
X7092543Y3291941D01*
X7096607Y3290214D01*
X7100874Y3288893D01*
X7105192Y3287928D01*
X7109612Y3287369D01*
X7114235Y3287166D01*
X7528306Y3287166D01*
X7531912Y3286506D01*
X7535062Y3284575D01*
X7545984Y3268979D01*
X7555534Y3258464D01*
X7566355Y3249218D01*
X7578293Y3241497D01*
X7591094Y3235299D01*
X7604556Y3230829D01*
X7618526Y3228136D01*
X7632700Y3227222D01*
X7646873Y3228136D01*
X7660843Y3230829D01*
X7674305Y3235299D01*
X7687106Y3241497D01*
X7699044Y3249218D01*
X7709865Y3258464D01*
X7719415Y3268979D01*
X7727543Y3280613D01*
X7734096Y3293211D01*
X7739024Y3306572D01*
X7742174Y3320389D01*
X7743545Y3334562D01*
X7743088Y3348736D01*
X7740802Y3362756D01*
X7736789Y3376371D01*
X7730998Y3389376D01*
X7723631Y3401517D01*
X7714792Y3412642D01*
X7704581Y3422548D01*
X7693202Y3431032D01*
X7680807Y3437991D01*
X7667650Y3443325D01*
X7653883Y3446932D01*
X7639812Y3448761D01*
X7625588Y3448761D01*
X7611516Y3446932D01*
X7597749Y3443325D01*
X7584592Y3437991D01*
X7572197Y3431032D01*
X7560818Y3422548D01*
X7550607Y3412642D01*
X7541768Y3401517D01*
X7537094Y3393846D01*
X7534859Y3391255D01*
X7531811Y3389579D01*
X7528407Y3388969D01*
X7139330Y3388969D01*
X7135418Y3389731D01*
X7132167Y3391966D01*
X6734098Y3790035D01*
X6731863Y3793286D01*
X6731101Y3797198D01*
X6731101Y4749596D01*
X6730898Y4754219D01*
X6730339Y4758639D01*
X6729374Y4762957D01*
X6728053Y4767224D01*
X6726326Y4771288D01*
X6724294Y4775250D01*
X6721906Y4779010D01*
X6719214Y4782515D01*
X6716064Y4785969D01*
X6348069Y5153964D01*
X6344615Y5157114D01*
X6341110Y5159806D01*
X6337350Y5162194D01*
X6333388Y5164226D01*
X6329324Y5165953D01*
X6325057Y5167274D01*
X6320739Y5168239D01*
X6316319Y5168798D01*
X6311696Y5169001D01*
X5623001Y5169001D01*
X5618378Y5168798D01*
X5613958Y5168239D01*
X5609640Y5167274D01*
X5605373Y5165953D01*
X5601309Y5164226D01*
X5597347Y5162194D01*
X5593588Y5159806D01*
X5590082Y5157114D01*
X5586628Y5153964D01*
X5547969Y5115306D01*
X5544972Y5113223D01*
X5541416Y5112308D01*
X5537809Y5112766D01*
X5528310Y5115712D01*
X5513324Y5118455D01*
X5498185Y5119370D01*
X5482996Y5118455D01*
X5468061Y5115712D01*
X5453532Y5111191D01*
X5439664Y5104993D01*
X5426659Y5097119D01*
X5414670Y5087721D01*
X5403951Y5077002D01*
X5394553Y5065014D01*
X5386679Y5052009D01*
X5380431Y5038090D01*
X5378196Y5034940D01*
X5374995Y5032857D01*
X5371185Y5032095D01*
X5367375Y5032857D01*
X5364124Y5034940D01*
X5361940Y5038090D01*
X5355640Y5052009D01*
X5347817Y5065014D01*
X5338419Y5077002D01*
X5327700Y5087721D01*
X5315712Y5097119D01*
X5306669Y5102555D01*
X5303926Y5104993D01*
X5302250Y5108244D01*
X5301792Y5111902D01*
X5302656Y5115458D01*
X5304739Y5118455D01*
X5390235Y5203901D01*
X5393486Y5206136D01*
X5397398Y5206898D01*
X7010501Y5206898D01*
X7014413Y5206136D01*
X7017664Y5203901D01*
X7578801Y4642764D01*
X7581036Y4639513D01*
X7581798Y4635601D01*
X7581798Y3692347D01*
X7581188Y3688842D01*
X7579359Y3685794D01*
X7576616Y3683508D01*
X7572197Y3681018D01*
X7560818Y3672535D01*
X7550607Y3662629D01*
X7541768Y3651554D01*
X7534402Y3639413D01*
X7528661Y3626408D01*
X7524597Y3612794D01*
X7522311Y3598722D01*
X7521854Y3584549D01*
X7523225Y3570427D01*
X7526375Y3556558D01*
X7531303Y3543198D01*
X7537856Y3530600D01*
X7545984Y3518966D01*
X7555534Y3508451D01*
X7566355Y3499256D01*
X7578293Y3491484D01*
X7591094Y3485337D01*
X7604556Y3480815D01*
X7618526Y3478123D01*
X7632700Y3477209D01*
X7646873Y3478123D01*
X7660843Y3480815D01*
X7674305Y3485337D01*
X7687106Y3491484D01*
X7699044Y3499256D01*
X7709865Y3508451D01*
X7719415Y3518966D01*
X7727543Y3530600D01*
X7734096Y3543198D01*
X7739024Y3556558D01*
X7742174Y3570427D01*
X7743545Y3584549D01*
X7743088Y3598722D01*
X7740802Y3612794D01*
X7736789Y3626408D01*
X7730998Y3639413D01*
X7723631Y3651554D01*
X7714792Y3662629D01*
X7704581Y3672535D01*
X7693202Y3681018D01*
X7688783Y3683508D01*
X7686040Y3685794D01*
X7684211Y3688842D01*
X7683601Y3692347D01*
X7683601Y4660696D01*
X7683398Y4665319D01*
X7682839Y4669739D01*
X7681874Y4674057D01*
X7680553Y4678324D01*
X7678826Y4682388D01*
X7676794Y4686350D01*
X7674406Y4690110D01*
X7671714Y4693615D01*
X7668564Y4697069D01*
X7071969Y5293664D01*
X7068515Y5296814D01*
X7065009Y5299506D01*
X7061250Y5301894D01*
X7057288Y5303926D01*
X7053224Y5305653D01*
X7048957Y5306974D01*
X7044639Y5307939D01*
X7040219Y5308498D01*
X7035596Y5308701D01*
X5372303Y5308701D01*
X5367680Y5308498D01*
X5363260Y5307939D01*
X5358942Y5306974D01*
X5354675Y5305653D01*
X5350611Y5303926D01*
X5346649Y5301894D01*
X5342890Y5299506D01*
X5339384Y5296814D01*
X5335930Y5293664D01*
X5209235Y5166918D01*
X5206390Y5163820D01*
X5203393Y5159959D01*
X5201208Y5156606D01*
X5198973Y5152288D01*
X5197398Y5148580D01*
X5195925Y5143957D01*
X5195062Y5140045D01*
X5194401Y5135219D01*
X5194198Y5130952D01*
X5194096Y5115255D01*
X5193334Y5111496D01*
X5191201Y5108244D01*
X5188102Y5106060D01*
X5185714Y5104993D01*
X5172659Y5097119D01*
X5160721Y5087721D01*
X5149951Y5077002D01*
X5140604Y5065014D01*
X5132730Y5052009D01*
X5126482Y5038090D01*
X5121960Y5023612D01*
X5119217Y5008676D01*
X5118303Y4993487D01*
X5119217Y4978349D01*
X5121960Y4963363D01*
X5126482Y4948936D01*
X5132730Y4935016D01*
X5140604Y4922012D01*
X5149951Y4910023D01*
X5160721Y4899253D01*
X5172659Y4889906D01*
X5190439Y4879086D01*
X5192522Y4875834D01*
X5193284Y4872024D01*
X5193284Y4482084D01*
X5192522Y4478172D01*
X5190286Y4474921D01*
X3626764Y2911398D01*
X3623513Y2909163D01*
X3619601Y2908401D01*
X2703525Y2908401D01*
X2700324Y2908909D01*
X2697480Y2910433D01*
X2695194Y2912770D01*
X2690215Y2919933D01*
X2680665Y2930448D01*
X2669844Y2939643D01*
X2657906Y2947416D01*
X2645105Y2953562D01*
X2631643Y2958084D01*
X2617673Y2960776D01*
X2603500Y2961690D01*
X2589326Y2960776D01*
X2575356Y2958084D01*
X2561894Y2953562D01*
X2550972Y2948330D01*
X2547010Y2947314D01*
X2543048Y2947924D01*
X2539593Y2950057D01*
X2537256Y2953359D01*
X2536393Y2957322D01*
X2537104Y2961284D01*
X2539339Y2964637D01*
X2565806Y2991104D01*
X2568651Y2993085D01*
X2572054Y2993999D01*
X2575560Y2993745D01*
X2582316Y2991967D01*
X2596388Y2990138D01*
X2610612Y2990138D01*
X2624683Y2991967D01*
X2638450Y2995574D01*
X2651607Y3000908D01*
X2664002Y3007868D01*
X2675382Y3016351D01*
X2685592Y3026257D01*
X2694432Y3037382D01*
X2701798Y3049524D01*
X2707538Y3062528D01*
X2711602Y3076143D01*
X2713888Y3090164D01*
X2714345Y3104337D01*
X2712974Y3118510D01*
X2709824Y3132328D01*
X2704896Y3145688D01*
X2698343Y3158286D01*
X2690215Y3169920D01*
X2680665Y3180435D01*
X2669844Y3189681D01*
X2657906Y3197402D01*
X2645105Y3203600D01*
X2631643Y3208070D01*
X2617673Y3210763D01*
X2603500Y3211677D01*
X2589326Y3210763D01*
X2575356Y3208070D01*
X2561894Y3203600D01*
X2550972Y3198317D01*
X2547061Y3197352D01*
X2543098Y3197961D01*
X2539644Y3200095D01*
X2537307Y3203397D01*
X2536444Y3207308D01*
X2537155Y3211322D01*
X2539390Y3214674D01*
X2565806Y3241090D01*
X2568702Y3243072D01*
X2572054Y3244037D01*
X2575560Y3243732D01*
X2582316Y3241954D01*
X2596388Y3240125D01*
X2610612Y3240125D01*
X2624683Y3241954D01*
X2638450Y3245561D01*
X2651607Y3250895D01*
X2664002Y3257854D01*
X2675382Y3266389D01*
X2685592Y3276244D01*
X2694432Y3287369D01*
X2701798Y3299510D01*
X2707538Y3312515D01*
X2711602Y3326129D01*
X2713888Y3340150D01*
X2714345Y3354374D01*
X2712974Y3368497D01*
X2709824Y3382365D01*
X2704896Y3395675D01*
X2698343Y3408273D01*
X2690215Y3419957D01*
X2680665Y3430473D01*
X2669844Y3439668D01*
X2657906Y3447440D01*
X2645105Y3453587D01*
X2631643Y3458057D01*
X2617673Y3460800D01*
X2603500Y3461664D01*
X2589326Y3460800D01*
X2574696Y3457905D01*
X2571394Y3457854D01*
X2568244Y3458768D01*
X2565552Y3460699D01*
X2539136Y3487165D01*
X2536850Y3490620D01*
X2536190Y3494684D01*
X2537155Y3498697D01*
X2539644Y3501999D01*
X2543251Y3504031D01*
X2547366Y3504437D01*
X2551328Y3503218D01*
X2554630Y3501288D01*
X2554630Y3551936D01*
X2499461Y3551936D01*
X2495600Y3552748D01*
X2492298Y3554933D01*
X2490063Y3558235D01*
X2489301Y3562096D01*
X2489301Y3639515D01*
X2490063Y3643376D01*
X2492298Y3646678D01*
X2495600Y3648862D01*
X2499461Y3649675D01*
X2554630Y3649675D01*
X2554630Y3700119D01*
X2549093Y3697427D01*
X2537155Y3689654D01*
X2526334Y3680460D01*
X2516784Y3669944D01*
X2508453Y3657904D01*
X2505608Y3654501D01*
X2501493Y3652672D01*
X2497074Y3652723D01*
X2493060Y3654704D01*
X2490266Y3658260D01*
X2489301Y3662578D01*
X2489301Y3822801D01*
X2490063Y3826713D01*
X2492298Y3829964D01*
X2989935Y4327601D01*
X2993186Y4329836D01*
X2997098Y4330598D01*
X4470196Y4330598D01*
X4474819Y4330801D01*
X4479239Y4331360D01*
X4483557Y4332325D01*
X4487824Y4333646D01*
X4491888Y4335373D01*
X4495850Y4337405D01*
X4499610Y4339793D01*
X4503115Y4342485D01*
X4506569Y4345635D01*
X4771948Y4611014D01*
X4775098Y4614468D01*
X4777790Y4617974D01*
X4780178Y4621733D01*
X4782210Y4625695D01*
X4783937Y4629759D01*
X4785258Y4634026D01*
X4786223Y4638344D01*
X4786782Y4642764D01*
X4786985Y4647387D01*
X4786985Y4857496D01*
X4787747Y4861356D01*
X4789982Y4864658D01*
X4793284Y4866894D01*
X4797145Y4867656D01*
X4835499Y4867656D01*
X4841849Y4868367D01*
X4847285Y4870246D01*
X4852212Y4873345D01*
X4856276Y4877460D01*
X4859375Y4882337D01*
X4861306Y4887823D01*
X4862017Y4894122D01*
X4862017Y4926228D01*
X4862931Y4930495D01*
X4865573Y4933950D01*
X4869434Y4935982D01*
X4873802Y4936236D01*
X4877866Y4934610D01*
X4880864Y4931460D01*
X4886604Y4922012D01*
X4895951Y4910023D01*
X4906721Y4899253D01*
X4918659Y4889906D01*
X4931714Y4882032D01*
X4933848Y4881067D01*
X4933848Y4937150D01*
X4872177Y4937150D01*
X4868265Y4937912D01*
X4864963Y4940147D01*
X4862779Y4943398D01*
X4862017Y4947310D01*
X4862017Y5039664D01*
X4862779Y5043576D01*
X4864963Y5046878D01*
X4868265Y5049062D01*
X4872177Y5049824D01*
X4933848Y5049824D01*
X4933848Y5105958D01*
X4931714Y5104993D01*
X4918659Y5097119D01*
X4906721Y5087721D01*
X4895951Y5077002D01*
X4886604Y5065014D01*
X4880864Y5055514D01*
X4877866Y5052364D01*
X4873802Y5050739D01*
X4869434Y5050993D01*
X4865573Y5053025D01*
X4862931Y5056530D01*
X4862017Y5060797D01*
X4862017Y5093004D01*
X4861306Y5099304D01*
X4859375Y5104739D01*
X4856276Y5109667D01*
X4852212Y5113731D01*
X4847285Y5116830D01*
X4841849Y5118760D01*
X4835499Y5119471D01*
X4636668Y5119471D01*
X4630318Y5118760D01*
X4624882Y5116830D01*
X4620006Y5113731D01*
X4615891Y5109667D01*
X4612792Y5104739D01*
X4610912Y5099304D01*
X4610201Y5093004D01*
X4610201Y4894122D01*
X4610912Y4887823D01*
X4612792Y4882337D01*
X4615891Y4877460D01*
X4620006Y4873345D01*
X4624882Y4870246D01*
X4630318Y4868367D01*
X4636668Y4867656D01*
X4675022Y4867656D01*
X4678883Y4866894D01*
X4682185Y4864658D01*
X4684420Y4861356D01*
X4685182Y4857496D01*
X4685182Y4672482D01*
X4684420Y4668570D01*
X4682185Y4665319D01*
X4452264Y4435398D01*
X4449013Y4433163D01*
X4445101Y4432401D01*
X2972003Y4432401D01*
X2967380Y4432198D01*
X2962960Y4431639D01*
X2958642Y4430674D01*
X2954375Y4429353D01*
X2950311Y4427626D01*
X2946349Y4425594D01*
X2942590Y4423206D01*
X2939084Y4420514D01*
X2935630Y4417364D01*
X2402535Y3884269D01*
X2399385Y3880815D01*
X2396693Y3877310D01*
X2394305Y3873550D01*
X2392273Y3869588D01*
X2390546Y3865524D01*
X2389225Y3861257D01*
X2388260Y3856939D01*
X2387701Y3852519D01*
X2387498Y3847896D01*
X2387498Y3516122D01*
X2387701Y3511448D01*
X2388260Y3507079D01*
X2389225Y3502710D01*
X2390546Y3498494D01*
X2392273Y3494379D01*
X2394305Y3490468D01*
X2396693Y3486708D01*
X2399385Y3483203D01*
X2402535Y3479749D01*
X2493721Y3388563D01*
X2495702Y3385769D01*
X2496667Y3382518D01*
X2496464Y3379114D01*
X2494026Y3368497D01*
X2492654Y3354374D01*
X2493111Y3340150D01*
X2495397Y3326129D01*
X2496312Y3323082D01*
X2496718Y3319475D01*
X2495804Y3315970D01*
X2493721Y3313023D01*
X2250135Y3069437D01*
X2246985Y3065983D01*
X2244293Y3062478D01*
X2241905Y3058718D01*
X2239873Y3054756D01*
X2238146Y3050692D01*
X2236825Y3046425D01*
X2235860Y3042107D01*
X2235301Y3037687D01*
X2235098Y3033064D01*
X2235098Y2654503D01*
X2235301Y2649880D01*
X2235860Y2645460D01*
X2236825Y2641142D01*
X2238146Y2636875D01*
X2239873Y2632811D01*
X2241905Y2628849D01*
X2244293Y2625090D01*
X2246985Y2621584D01*
X2250135Y2618130D01*
X2402230Y2466035D01*
X2405684Y2462885D01*
X2409190Y2460193D01*
X2412949Y2457805D01*
X2416911Y2455773D01*
X2420975Y2454046D01*
X2425242Y2452725D01*
X2429560Y2451760D01*
X2433980Y2451201D01*
G37*
G36*
X7583830Y2738780D02*
G01*
X7583830Y2789224D01*
X7533386Y2789224D01*
X7537856Y2780639D01*
X7545984Y2768955D01*
X7555534Y2758440D01*
X7566355Y2749245D01*
X7578293Y2741472D01*
G37*
G36*
X7681569Y2738780D02*
G01*
X7687106Y2741472D01*
X7699044Y2749245D01*
X7709865Y2758440D01*
X7719415Y2768955D01*
X7727543Y2780639D01*
X7732014Y2789224D01*
X7681569Y2789224D01*
G37*
G36*
X7533284Y2886964D02*
G01*
X7583830Y2886964D01*
X7583830Y2937611D01*
X7572197Y2931007D01*
X7560818Y2922524D01*
X7550607Y2912668D01*
X7541768Y2901543D01*
X7534402Y2889402D01*
G37*
G36*
X7681569Y2886964D02*
G01*
X7732115Y2886964D01*
X7730998Y2889402D01*
X7723631Y2901543D01*
X7714792Y2912668D01*
X7704581Y2922524D01*
X7693202Y2931007D01*
X7681569Y2937611D01*
G37*
G36*
X2652369Y3501288D02*
G01*
X2664002Y3507892D01*
X2675382Y3516376D01*
X2685592Y3526231D01*
X2694432Y3537356D01*
X2701798Y3549497D01*
X2702915Y3551936D01*
X2652369Y3551936D01*
G37*
G36*
X2652369Y3649675D02*
G01*
X2702814Y3649675D01*
X2698343Y3658260D01*
X2690215Y3669944D01*
X2680665Y3680460D01*
X2669844Y3689654D01*
X2657906Y3697427D01*
X2652369Y3700119D01*
G37*
G36*
X3251708Y4743043D02*
G01*
X3269792Y4744466D01*
X3287572Y4747717D01*
X3304997Y4752746D01*
X3321761Y4759604D01*
X3337712Y4768088D01*
X3352749Y4778197D01*
X3366668Y4789779D01*
X3379317Y4802784D01*
X3390544Y4816957D01*
X3400247Y4832248D01*
X3408375Y4848453D01*
X3414725Y4865420D01*
X3419348Y4882896D01*
X3422142Y4900777D01*
X3423056Y4918862D01*
X3422142Y4936998D01*
X3419348Y4954879D01*
X3414725Y4972354D01*
X3408375Y4989322D01*
X3400247Y5005527D01*
X3390544Y5020818D01*
X3379317Y5034991D01*
X3366668Y5047996D01*
X3352749Y5059578D01*
X3337712Y5069687D01*
X3321761Y5078171D01*
X3304997Y5085029D01*
X3287572Y5090058D01*
X3269792Y5093309D01*
X3251708Y5094732D01*
X3233623Y5094274D01*
X3215640Y5091938D01*
X3198012Y5087772D01*
X3180943Y5081828D01*
X3164535Y5074158D01*
X3148990Y5064810D01*
X3134512Y5053939D01*
X3121202Y5041646D01*
X3109264Y5028031D01*
X3098749Y5013299D01*
X3089859Y4997551D01*
X3082594Y4980940D01*
X3077108Y4963668D01*
X3073400Y4945938D01*
X3071520Y4927955D01*
X3071520Y4909820D01*
X3073400Y4891836D01*
X3077108Y4874107D01*
X3082594Y4856835D01*
X3089859Y4840224D01*
X3098749Y4824476D01*
X3109264Y4809744D01*
X3121202Y4796129D01*
X3134512Y4783836D01*
X3148990Y4772964D01*
X3164535Y4763617D01*
X3180943Y4755946D01*
X3198012Y4750003D01*
X3215640Y4745837D01*
X3233623Y4743500D01*
G37*
G36*
X6991705Y4743043D02*
G01*
X7009790Y4744466D01*
X7027570Y4747717D01*
X7044994Y4752746D01*
X7061758Y4759604D01*
X7077709Y4768088D01*
X7092746Y4778197D01*
X7106666Y4789779D01*
X7119315Y4802784D01*
X7130542Y4816957D01*
X7140244Y4832248D01*
X7148372Y4848453D01*
X7154722Y4865420D01*
X7159345Y4882896D01*
X7162139Y4900777D01*
X7163053Y4918862D01*
X7162139Y4936998D01*
X7159345Y4954879D01*
X7154722Y4972354D01*
X7148372Y4989322D01*
X7140244Y5005527D01*
X7130542Y5020818D01*
X7119315Y5034991D01*
X7106666Y5047996D01*
X7092746Y5059578D01*
X7077709Y5069687D01*
X7061758Y5078171D01*
X7044994Y5085029D01*
X7027570Y5090058D01*
X7009790Y5093309D01*
X6991705Y5094732D01*
X6973620Y5094274D01*
X6955637Y5091938D01*
X6938009Y5087772D01*
X6920941Y5081828D01*
X6904532Y5074158D01*
X6888988Y5064810D01*
X6874509Y5053939D01*
X6861200Y5041646D01*
X6849262Y5028031D01*
X6838746Y5013299D01*
X6829856Y4997551D01*
X6822592Y4980940D01*
X6817106Y4963668D01*
X6813397Y4945938D01*
X6811518Y4927955D01*
X6811518Y4909820D01*
X6813397Y4891836D01*
X6817106Y4874107D01*
X6822592Y4856835D01*
X6829856Y4840224D01*
X6838746Y4824476D01*
X6849262Y4809744D01*
X6861200Y4796129D01*
X6874509Y4783836D01*
X6888988Y4772964D01*
X6904532Y4763617D01*
X6920941Y4755946D01*
X6938009Y4750003D01*
X6955637Y4745837D01*
X6973620Y4743500D01*
G37*
G36*
X5046522Y4881067D02*
G01*
X5048707Y4882032D01*
X5061712Y4889906D01*
X5073700Y4899253D01*
X5084419Y4910023D01*
X5093817Y4922012D01*
X5101640Y4935016D01*
X5102656Y4937150D01*
X5046522Y4937150D01*
G37*
G36*
X5046522Y5049824D02*
G01*
X5102656Y5049824D01*
X5101640Y5052009D01*
X5093817Y5065014D01*
X5084419Y5077002D01*
X5073700Y5087721D01*
X5061712Y5097119D01*
X5048707Y5104993D01*
X5046522Y5105958D01*
G37*

%LPD*%
G36*
X2527198Y2717901D02*
G01*
X2523286Y2718663D01*
X2520035Y2720898D01*
X2492298Y2748635D01*
X2490063Y2751886D01*
X2489301Y2755798D01*
X2489301Y2789326D01*
X2490266Y2793593D01*
X2492857Y2797098D01*
X2496718Y2799130D01*
X2501087Y2799384D01*
X2505151Y2797759D01*
X2508148Y2794609D01*
X2512568Y2787345D01*
X2521407Y2776270D01*
X2531618Y2766364D01*
X2542997Y2757881D01*
X2555392Y2750870D01*
X2568549Y2745536D01*
X2582316Y2741980D01*
X2596388Y2740152D01*
X2610612Y2740152D01*
X2624683Y2741980D01*
X2638450Y2745536D01*
X2651607Y2750870D01*
X2664002Y2757881D01*
X2675382Y2766364D01*
X2685592Y2776270D01*
X2694432Y2787345D01*
X2704490Y2803753D01*
X2707741Y2805836D01*
X2711551Y2806598D01*
X3644696Y2806598D01*
X3649319Y2806801D01*
X3653739Y2807360D01*
X3658057Y2808325D01*
X3662324Y2809646D01*
X3666388Y2811373D01*
X3670350Y2813405D01*
X3674110Y2815793D01*
X3677615Y2818485D01*
X3681069Y2821635D01*
X5279999Y4420616D01*
X5283149Y4424070D01*
X5285892Y4427575D01*
X5288280Y4431334D01*
X5290312Y4435297D01*
X5291988Y4439361D01*
X5293360Y4443628D01*
X5294325Y4447946D01*
X5294884Y4452366D01*
X5295087Y4456988D01*
X5295087Y4872024D01*
X5295849Y4875834D01*
X5297932Y4879086D01*
X5301081Y4881321D01*
X5302707Y4882032D01*
X5315712Y4889906D01*
X5327700Y4899253D01*
X5338419Y4910023D01*
X5347817Y4922012D01*
X5355640Y4935016D01*
X5361940Y4948885D01*
X5364124Y4952034D01*
X5367375Y4954168D01*
X5371185Y4954879D01*
X5374995Y4954168D01*
X5378196Y4952034D01*
X5380431Y4948885D01*
X5386679Y4935016D01*
X5394553Y4922012D01*
X5403951Y4910023D01*
X5414670Y4899253D01*
X5426659Y4889906D01*
X5444439Y4879086D01*
X5446522Y4875834D01*
X5447233Y4872024D01*
X5447233Y3453333D01*
X5446471Y3449472D01*
X5444286Y3446170D01*
X4718964Y2720898D01*
X4715713Y2718663D01*
X4711801Y2717901D01*
G37*

%LPD*%
D10*
X2616200Y2850794D02*
G01*
X2622905Y2857500D01*
X3644900Y2857500D01*
X5244183Y4456788D01*
X5244183Y4993487D01*
X2603510Y3100801D02*
G01*
X2438400Y2935691D01*
X2438400Y2730500D01*
X2501900Y2667000D01*
X4737100Y2667000D01*
X5498160Y3428060D01*
X5498160Y4993487D01*
X5498084Y4993386D02*
G01*
X5622797Y5118100D01*
X6311900Y5118100D01*
X6680200Y4749800D01*
X6680200Y3771900D01*
X7114031Y3338068D01*
X7632700Y3338068D01*
X2603510Y3350788D02*
G01*
X2438400Y3515898D01*
X2438400Y3848100D01*
X2971800Y4381500D01*
X4114800Y4381500D01*
X4726838Y4993538D02*
G01*
X4736084Y4993538D01*
X4114800Y4381500D02*
G01*
X4470400Y4381500D01*
X4736084Y4647184D01*
X4736084Y4993538D01*
X2603500Y3350768D02*
G01*
X2286000Y3033268D01*
X2286000Y2654300D01*
X2438400Y2501900D01*
X5981700Y2501900D01*
X6567931Y3088131D01*
X7632700Y3088131D01*
X2616200Y3600704D02*
G01*
X4045204Y3600704D01*
X4990084Y4545584D01*
X4990084Y4993386D01*
X5419597Y5422900D02*
G01*
X7124700Y5422900D01*
X7835900Y4711700D01*
X7835900Y3035300D01*
X7638795Y2838195D01*
X7632700Y2838195D01*
X4990084Y4993386D02*
G01*
X4991100Y5232400D01*
X5181600Y5422900D01*
X5419597Y5422900D01*
X5508497Y5257800D02*
G01*
X7035800Y5257800D01*
X7632700Y4660900D01*
X7632700Y3588004D01*
X5244084Y4993386D02*
G01*
X5245100Y5130800D01*
X5372100Y5257800D01*
X5508497Y5257800D01*
D11*
G01*
X2603500Y2850794D03*
G01*
X2603500Y3100806D03*
G01*
X2603500Y3350793D03*
G01*
X2603500Y3600805D03*
G01*
X7632700Y3588105D03*
G01*
X7632700Y3338093D03*
G01*
X7632700Y3088106D03*
G01*
X7632700Y2838094D03*
D12*
G01*
X4990185Y4993487D03*
G01*
X5244185Y4993487D03*
G01*
X5498160Y4993487D03*
D13*
G01*
X4736084Y4993538D03*
M02*
