G04 Layer: TopSilkscreenLayer*
G04 EasyEDA v6.5.47, 2024-09-30 16:46:26*
G04 e7e5d466ba494a0aaca811e2ade4a1f3,2802210eb98647e48a656566f44cf116,10*
G04 Gerber Generator version 0.2*
G04 Scale: 100 percent, Rotated: No, Reflected: No *
G04 Dimensions in millimeters *
G04 leading zeros omitted , absolute positions ,4 integer and 5 decimal *
%FSLAX45Y45*%
%MOMM*%

%ADD10C,0.1524*%
%ADD11C,0.2032*%
%ADD12C,0.2540*%
%ADD13C,0.1000*%

%LPD*%
D10*
X2994822Y3231789D02*
G01*
X2885856Y3231789D01*
X2994822Y3231789D02*
G01*
X2994822Y3185053D01*
X2989742Y3169559D01*
X2984408Y3164225D01*
X2973994Y3159145D01*
X2958500Y3159145D01*
X2948086Y3164225D01*
X2943006Y3169559D01*
X2937672Y3185053D01*
X2937672Y3231789D01*
X2994822Y3114441D02*
G01*
X2994822Y3057291D01*
X2953166Y3088279D01*
X2953166Y3072785D01*
X2948086Y3062371D01*
X2943006Y3057291D01*
X2927258Y3051957D01*
X2916844Y3051957D01*
X2901350Y3057291D01*
X2890936Y3067705D01*
X2885856Y3083199D01*
X2885856Y3098693D01*
X2890936Y3114441D01*
X2896016Y3119521D01*
X2906430Y3124855D01*
X7241377Y3207110D02*
G01*
X7350343Y3207110D01*
X7241377Y3207110D02*
G01*
X7241377Y3253846D01*
X7246457Y3269340D01*
X7251791Y3274674D01*
X7262205Y3279754D01*
X7277699Y3279754D01*
X7288113Y3274674D01*
X7293193Y3269340D01*
X7298527Y3253846D01*
X7298527Y3207110D01*
X7241377Y3366114D02*
G01*
X7314021Y3314044D01*
X7314021Y3392022D01*
X7241377Y3366114D02*
G01*
X7350343Y3366114D01*
X5092700Y5487415D02*
G01*
X5092700Y5409437D01*
X5097779Y5393944D01*
X5108193Y5383529D01*
X5123941Y5378450D01*
X5134356Y5378450D01*
X5149850Y5383529D01*
X5160263Y5393944D01*
X5165343Y5409437D01*
X5165343Y5487415D01*
X5199634Y5466587D02*
G01*
X5210047Y5471921D01*
X5225795Y5487415D01*
X5225795Y5378450D01*
D11*
X4914005Y3043041D02*
G01*
X4928483Y3050407D01*
X4950327Y3072251D01*
X4950327Y2919343D01*
X5005699Y2955919D02*
G01*
X4998333Y2948553D01*
X5005699Y2941187D01*
X5012811Y2948553D01*
X5005699Y2955919D01*
X5148193Y3072251D02*
G01*
X5075549Y3072251D01*
X5068183Y3006719D01*
X5075549Y3014085D01*
X5097393Y3021197D01*
X5118983Y3021197D01*
X5140827Y3014085D01*
X5155559Y2999353D01*
X5162671Y2977509D01*
X5162671Y2963031D01*
X5155559Y2941187D01*
X5140827Y2926709D01*
X5118983Y2919343D01*
X5097393Y2919343D01*
X5075549Y2926709D01*
X5068183Y2934075D01*
X5060817Y2948553D01*
X5283575Y3072251D02*
G01*
X5210677Y2970397D01*
X5319897Y2970397D01*
X5283575Y3072251D02*
G01*
X5283575Y2919343D01*
X5367903Y3072251D02*
G01*
X5367903Y3021197D01*
X5426069Y3072251D02*
G01*
X5426069Y3021197D01*
X4012549Y3585349D02*
G01*
X3992483Y3605415D01*
X3962511Y3615321D01*
X3922633Y3615321D01*
X3892661Y3605415D01*
X3872595Y3585349D01*
X3872595Y3565283D01*
X3882501Y3545217D01*
X3892661Y3535311D01*
X3912473Y3525405D01*
X3972671Y3505339D01*
X3992483Y3495179D01*
X4002643Y3485273D01*
X4012549Y3465207D01*
X4012549Y3435235D01*
X3992483Y3415423D01*
X3962511Y3405263D01*
X3922633Y3405263D01*
X3892661Y3415423D01*
X3872595Y3435235D01*
X4218543Y3585349D02*
G01*
X4198477Y3605415D01*
X4168505Y3615321D01*
X4128627Y3615321D01*
X4098655Y3605415D01*
X4078589Y3585349D01*
X4078589Y3565283D01*
X4088495Y3545217D01*
X4098655Y3535311D01*
X4118721Y3525405D01*
X4178665Y3505339D01*
X4198477Y3495179D01*
X4208637Y3485273D01*
X4218543Y3465207D01*
X4218543Y3435235D01*
X4198477Y3415423D01*
X4168505Y3405263D01*
X4128627Y3405263D01*
X4098655Y3415423D01*
X4078589Y3435235D01*
X4284583Y3615321D02*
G01*
X4284583Y3405263D01*
X4284583Y3615321D02*
G01*
X4354687Y3615321D01*
X4384659Y3605415D01*
X4404471Y3585349D01*
X4414631Y3565283D01*
X4424537Y3535311D01*
X4424537Y3485273D01*
X4414631Y3455301D01*
X4404471Y3435235D01*
X4384659Y3415423D01*
X4354687Y3405263D01*
X4284583Y3405263D01*
X4490577Y3575189D02*
G01*
X4510643Y3585349D01*
X4540615Y3615321D01*
X4540615Y3405263D01*
X4626467Y3615321D02*
G01*
X4736703Y3615321D01*
X4676505Y3535311D01*
X4706477Y3535311D01*
X4726543Y3525405D01*
X4736703Y3515245D01*
X4746609Y3485273D01*
X4746609Y3465207D01*
X4736703Y3435235D01*
X4716637Y3415423D01*
X4686665Y3405263D01*
X4656693Y3405263D01*
X4626467Y3415423D01*
X4616561Y3425329D01*
X4606655Y3445395D01*
X4872593Y3615321D02*
G01*
X4842621Y3605415D01*
X4822555Y3575189D01*
X4812649Y3525405D01*
X4812649Y3495179D01*
X4822555Y3445395D01*
X4842621Y3415423D01*
X4872593Y3405263D01*
X4892659Y3405263D01*
X4922631Y3415423D01*
X4942697Y3445395D01*
X4952603Y3495179D01*
X4952603Y3525405D01*
X4942697Y3575189D01*
X4922631Y3605415D01*
X4892659Y3615321D01*
X4872593Y3615321D01*
X5148691Y3545217D02*
G01*
X5138531Y3515245D01*
X5118719Y3495179D01*
X5088493Y3485273D01*
X5078587Y3485273D01*
X5048615Y3495179D01*
X5028549Y3515245D01*
X5018643Y3545217D01*
X5018643Y3555377D01*
X5028549Y3585349D01*
X5048615Y3605415D01*
X5078587Y3615321D01*
X5088493Y3615321D01*
X5118719Y3605415D01*
X5138531Y3585349D01*
X5148691Y3545217D01*
X5148691Y3495179D01*
X5138531Y3445395D01*
X5118719Y3415423D01*
X5088493Y3405263D01*
X5068681Y3405263D01*
X5038709Y3415423D01*
X5028549Y3435235D01*
X5368655Y3575189D02*
G01*
X5388467Y3585349D01*
X5418693Y3615321D01*
X5418693Y3405263D01*
X5494639Y3565283D02*
G01*
X5494639Y3575189D01*
X5504545Y3595255D01*
X5514705Y3605415D01*
X5534517Y3615321D01*
X5574649Y3615321D01*
X5594715Y3605415D01*
X5604621Y3595255D01*
X5614527Y3575189D01*
X5614527Y3555377D01*
X5604621Y3535311D01*
X5584555Y3505339D01*
X5484479Y3405263D01*
X5624687Y3405263D01*
X5740511Y3615321D02*
G01*
X5710539Y3605415D01*
X5700633Y3585349D01*
X5700633Y3565283D01*
X5710539Y3545217D01*
X5730605Y3535311D01*
X5770483Y3525405D01*
X5800709Y3515245D01*
X5820521Y3495179D01*
X5830681Y3475367D01*
X5830681Y3445395D01*
X5820521Y3425329D01*
X5810615Y3415423D01*
X5780643Y3405263D01*
X5740511Y3405263D01*
X5710539Y3415423D01*
X5700633Y3425329D01*
X5690473Y3445395D01*
X5690473Y3475367D01*
X5700633Y3495179D01*
X5720699Y3515245D01*
X5750671Y3525405D01*
X5790549Y3535311D01*
X5810615Y3545217D01*
X5820521Y3565283D01*
X5820521Y3585349D01*
X5810615Y3605415D01*
X5780643Y3615321D01*
X5740511Y3615321D01*
X5896467Y3545217D02*
G01*
X6006703Y3405263D01*
X6006703Y3545217D02*
G01*
X5896467Y3405263D01*
X6192631Y3585349D02*
G01*
X6182471Y3605415D01*
X6152499Y3615321D01*
X6132687Y3615321D01*
X6102715Y3605415D01*
X6082649Y3575189D01*
X6072489Y3525405D01*
X6072489Y3475367D01*
X6082649Y3435235D01*
X6102715Y3415423D01*
X6132687Y3405263D01*
X6142593Y3405263D01*
X6172565Y3415423D01*
X6192631Y3435235D01*
X6202537Y3465207D01*
X6202537Y3475367D01*
X6192631Y3505339D01*
X6172565Y3525405D01*
X6142593Y3535311D01*
X6132687Y3535311D01*
X6102715Y3525405D01*
X6082649Y3505339D01*
X6072489Y3475367D01*
X6368653Y3615321D02*
G01*
X6268577Y3475367D01*
X6418691Y3475367D01*
X6368653Y3615321D02*
G01*
X6368653Y3405263D01*
X5435600Y5327650D02*
G01*
X5428488Y5335015D01*
X5417565Y5338571D01*
X5403088Y5338571D01*
X5392165Y5335015D01*
X5384800Y5327650D01*
X5384800Y5320284D01*
X5388356Y5313171D01*
X5392165Y5309362D01*
X5399277Y5305805D01*
X5421122Y5298439D01*
X5428488Y5294884D01*
X5432043Y5291328D01*
X5435600Y5283962D01*
X5435600Y5273039D01*
X5428488Y5265673D01*
X5417565Y5262118D01*
X5403088Y5262118D01*
X5392165Y5265673D01*
X5384800Y5273039D01*
X5459729Y5338571D02*
G01*
X5459729Y5262118D01*
X5459729Y5338571D02*
G01*
X5485129Y5338571D01*
X5496052Y5335015D01*
X5503418Y5327650D01*
X5506974Y5320284D01*
X5510529Y5309362D01*
X5510529Y5291328D01*
X5506974Y5280405D01*
X5503418Y5273039D01*
X5496052Y5265673D01*
X5485129Y5262118D01*
X5459729Y5262118D01*
X5563615Y5338571D02*
G01*
X5534659Y5262118D01*
X5563615Y5338571D02*
G01*
X5592825Y5262118D01*
X5545581Y5287518D02*
G01*
X5581904Y5287518D01*
X5207000Y5327650D02*
G01*
X5199888Y5335015D01*
X5188965Y5338571D01*
X5174488Y5338571D01*
X5163565Y5335015D01*
X5156200Y5327650D01*
X5156200Y5320284D01*
X5159756Y5313171D01*
X5163565Y5309362D01*
X5170677Y5305805D01*
X5192522Y5298439D01*
X5199888Y5294884D01*
X5203443Y5291328D01*
X5207000Y5283962D01*
X5207000Y5273039D01*
X5199888Y5265673D01*
X5188965Y5262118D01*
X5174488Y5262118D01*
X5163565Y5265673D01*
X5156200Y5273039D01*
X5285740Y5320284D02*
G01*
X5281929Y5327650D01*
X5274818Y5335015D01*
X5267452Y5338571D01*
X5252974Y5338571D01*
X5245608Y5335015D01*
X5238495Y5327650D01*
X5234686Y5320284D01*
X5231129Y5309362D01*
X5231129Y5291328D01*
X5234686Y5280405D01*
X5238495Y5273039D01*
X5245608Y5265673D01*
X5252974Y5262118D01*
X5267452Y5262118D01*
X5274818Y5265673D01*
X5281929Y5273039D01*
X5285740Y5280405D01*
X5309615Y5338571D02*
G01*
X5309615Y5262118D01*
X5309615Y5262118D02*
G01*
X5353304Y5262118D01*
X4677409Y5320284D02*
G01*
X4673600Y5327650D01*
X4666488Y5335015D01*
X4659122Y5338571D01*
X4644643Y5338571D01*
X4637277Y5335015D01*
X4630165Y5327650D01*
X4626356Y5320284D01*
X4622800Y5309362D01*
X4622800Y5291328D01*
X4626356Y5280405D01*
X4630165Y5273039D01*
X4637277Y5265673D01*
X4644643Y5262118D01*
X4659122Y5262118D01*
X4666488Y5265673D01*
X4673600Y5273039D01*
X4677409Y5280405D01*
X4677409Y5291328D01*
X4659122Y5291328D02*
G01*
X4677409Y5291328D01*
X4701286Y5338571D02*
G01*
X4701286Y5262118D01*
X4701286Y5338571D02*
G01*
X4752340Y5262118D01*
X4752340Y5338571D02*
G01*
X4752340Y5262118D01*
X4776215Y5338571D02*
G01*
X4776215Y5262118D01*
X4776215Y5338571D02*
G01*
X4801615Y5338571D01*
X4812538Y5335015D01*
X4819904Y5327650D01*
X4823459Y5320284D01*
X4827270Y5309362D01*
X4827270Y5291328D01*
X4823459Y5280405D01*
X4819904Y5273039D01*
X4812538Y5265673D01*
X4801615Y5262118D01*
X4776215Y5262118D01*
X4876800Y5338571D02*
G01*
X4906009Y5262118D01*
X4934965Y5338571D02*
G01*
X4906009Y5262118D01*
X5013452Y5320284D02*
G01*
X5009895Y5327650D01*
X5002529Y5335015D01*
X4995418Y5338571D01*
X4980686Y5338571D01*
X4973574Y5335015D01*
X4966208Y5327650D01*
X4962652Y5320284D01*
X4959095Y5309362D01*
X4959095Y5291328D01*
X4962652Y5280405D01*
X4966208Y5273039D01*
X4973574Y5265673D01*
X4980686Y5262118D01*
X4995418Y5262118D01*
X5002529Y5265673D01*
X5009895Y5273039D01*
X5013452Y5280405D01*
X5092191Y5320284D02*
G01*
X5088381Y5327650D01*
X5081270Y5335015D01*
X5073904Y5338571D01*
X5059425Y5338571D01*
X5052059Y5335015D01*
X5044693Y5327650D01*
X5041138Y5320284D01*
X5037581Y5309362D01*
X5037581Y5291328D01*
X5041138Y5280405D01*
X5044693Y5273039D01*
X5052059Y5265673D01*
X5059425Y5262118D01*
X5073904Y5262118D01*
X5081270Y5265673D01*
X5088381Y5273039D01*
X5092191Y5280405D01*
D12*
X2840997Y3034571D02*
G01*
X2763499Y3034571D01*
X2763499Y2868267D01*
X2836237Y2868267D01*
X2840997Y2873027D01*
X2840997Y3583338D02*
G01*
X2763499Y3583338D01*
X2763499Y3417034D01*
X2836237Y3417034D01*
X2840997Y3421794D01*
X2261003Y3850800D02*
G01*
X2840997Y3850800D01*
X2840997Y2600799D01*
X2261003Y2600799D01*
X2261003Y3849801D01*
X2262002Y3850800D01*
X7395202Y3404328D02*
G01*
X7472700Y3404328D01*
X7472700Y3570632D01*
X7399962Y3570632D01*
X7395202Y3565872D01*
X7395202Y2855561D02*
G01*
X7472700Y2855561D01*
X7472700Y3021865D01*
X7399962Y3021865D01*
X7395202Y3017105D01*
X7975196Y2588099D02*
G01*
X7395202Y2588099D01*
X7395202Y3838100D01*
X7975196Y3838100D01*
X7975196Y2589098D01*
X7974197Y2588099D01*
D13*
X3267199Y4428901D02*
G01*
X6972190Y4428901D01*
X3271232Y2477310D02*
G01*
X6976224Y2477310D01*
X6977192Y4428901D02*
G01*
X6981225Y2477310D01*
X3267199Y4428901D02*
G01*
X3271232Y2477310D01*
D12*
X7237191Y5168900D02*
G01*
X7237191Y1368907D01*
X4467197Y1368907D02*
G01*
X2997200Y1368907D01*
X4467197Y1368907D02*
G01*
X4467197Y1768906D01*
X5767194Y1768906D01*
X5767194Y1368907D01*
X7237191Y1368907D02*
G01*
X5767194Y1368907D01*
X2997200Y5168900D02*
G01*
X2997200Y1368907D01*
X2997200Y5168900D02*
G01*
X7237191Y5168900D01*
M02*
